<svg width="320" height="320" viewBox="0 0 320 320" fill="none" xmlns="http://www.w3.org/2000/svg">
<path d="M61.6865 259.514V264.328H97.7192V259.514H61.6865Z" fill="#E0E0E0"/>
<path d="M66.5947 259.714C66.7195 259.714 66.8213 260.724 66.8213 261.969C66.8213 263.214 66.7195 264.224 66.5947 264.224C66.4693 264.224 66.3682 263.214 66.3682 261.969C66.3682 260.724 66.4699 259.714 66.5947 259.714Z" fill="#FAFAFA"/>
<path d="M65.8105 259.615C65.936 259.615 66.0371 260.625 66.0371 261.871C66.0371 263.116 65.936 264.126 65.8105 264.126C65.6857 264.126 65.584 263.116 65.584 261.871C65.584 260.625 65.6857 259.615 65.8105 259.615Z" fill="#FAFAFA"/>
<path d="M94.9326 259.714C95.0581 259.714 95.1592 260.724 95.1592 261.969C95.1592 263.214 95.0581 264.224 94.9326 264.224C94.8078 264.224 94.7061 263.214 94.7061 261.969C94.7067 260.724 94.8078 259.714 94.9326 259.714Z" fill="#FAFAFA"/>
<path d="M94.1484 259.615C94.2732 259.615 94.375 260.625 94.375 261.871C94.375 263.116 94.2732 264.126 94.1484 264.126C94.0236 264.126 93.9219 263.116 93.9219 261.871C93.9219 260.625 94.023 259.615 94.1484 259.615Z" fill="#FAFAFA"/>
<path d="M89.4417 262.066C89.4417 262.192 85.3144 262.293 80.2251 262.293C75.1339 262.293 71.0078 262.191 71.0078 262.066C71.0078 261.942 75.1339 261.84 80.2251 261.84C85.3144 261.84 89.4417 261.942 89.4417 262.066Z" fill="#FAFAFA"/>
<path d="M61.5303 281.188V290.815H97.5629V281.188H61.5303Z" fill="#E0E0E0"/>
<path d="M98.0246 288.107C98.0278 288.114 97.9619 288.152 97.8287 288.219C97.6969 288.288 97.4959 288.381 97.2284 288.494C96.6927 288.713 95.8844 289.023 94.7855 289.193C93.7052 289.346 92.2556 289.39 90.8214 288.63C90.1174 288.254 89.4479 287.682 88.9385 286.924C88.4406 286.167 88.1206 285.179 88.2831 284.151C88.3695 283.639 88.5833 283.134 88.9455 282.717C89.2975 282.299 89.8627 281.991 90.4649 282.027C91.0684 282.054 91.6137 282.4 91.9919 282.851C92.3734 283.303 92.6351 283.881 92.6889 284.493C92.8316 285.714 92.3177 286.98 91.4467 287.905C90.5897 288.864 89.3084 289.448 87.9843 289.598C86.6511 289.756 85.2726 289.545 83.9644 289.099C82.6569 288.647 81.3647 287.914 80.4527 286.738C80.0054 286.154 79.6822 285.429 79.6342 284.66C79.5676 283.893 79.8121 283.069 80.4015 282.497C80.6947 282.212 81.1043 282.021 81.5286 282.003C81.9535 281.983 82.3638 282.121 82.7068 282.335C83.4019 282.766 83.846 283.504 84.0329 284.277C84.3715 285.851 83.7487 287.491 82.6121 288.518C81.4723 289.554 79.9798 290.015 78.5551 290.169C77.1209 290.313 75.6783 290.206 74.3497 289.755C73.0262 289.314 71.8358 288.443 71.1503 287.268C70.4534 286.119 70.2249 284.664 70.7497 283.443C70.9961 282.838 71.5529 282.302 72.2198 282.199C72.8694 282.078 73.5337 282.258 74.0348 282.637C75.0518 283.444 75.2214 284.828 74.8931 285.881C74.5596 286.964 73.8313 287.794 73.0767 288.439C71.5363 289.739 69.7129 290.302 68.1353 290.358C66.5411 290.414 65.2009 289.975 64.2204 289.469C63.2329 288.955 62.5827 288.372 62.1788 287.956C61.9804 287.743 61.8351 287.575 61.7475 287.455C61.6572 287.337 61.6143 287.274 61.6207 287.269C61.6668 287.206 62.342 288.32 64.2998 289.311C65.2713 289.783 66.5839 290.183 68.1244 290.105C69.6502 290.027 71.4044 289.458 72.8687 288.195C73.5887 287.568 74.2659 286.768 74.5583 285.781C74.8527 284.827 74.6614 283.591 73.8089 282.936C73.3923 282.622 72.8195 282.475 72.294 282.579C71.7596 282.668 71.3359 283.074 71.1158 283.602C70.6614 284.671 70.8604 285.996 71.5094 287.052C72.1462 288.132 73.238 288.929 74.4911 289.344C75.743 289.766 77.1356 289.868 78.5084 289.726C79.8723 289.577 81.2713 289.133 82.3094 288.183C83.334 287.264 83.8934 285.756 83.5919 284.378C83.4287 283.704 83.0422 283.072 82.4681 282.718C81.9055 282.345 81.1702 282.357 80.7113 282.825C80.246 283.274 80.0207 283.972 80.0822 284.629C80.1231 285.298 80.4015 285.936 80.8079 286.47C81.6342 287.544 82.8604 288.258 84.1052 288.688C85.3641 289.122 86.6825 289.326 87.9363 289.182C89.1875 289.044 90.358 288.515 91.1574 287.632C91.9695 286.78 92.4387 285.623 92.3177 284.533C92.23 283.474 91.4223 282.441 90.4489 282.376C89.9689 282.344 89.5094 282.58 89.1983 282.939C88.8815 283.296 88.6812 283.75 88.6012 284.204C88.4444 285.133 88.7228 286.049 89.1823 286.766C89.6515 287.485 90.2812 288.04 90.9455 288.408C92.2902 289.15 93.7033 289.145 94.7638 289.018C95.8447 288.879 96.6556 288.599 97.1977 288.409C97.7379 288.211 98.0169 288.09 98.0246 288.107Z" fill="#FAFAFA"/>
<path d="M64.748 264.468V281.171H97.5628V264.468H64.748Z" fill="#EBEBEB"/>
<path d="M70.2002 265.041C70.3256 265.041 70.4268 268.661 70.4268 273.125C70.4268 277.591 70.3256 281.21 70.2002 281.21C70.0748 281.21 69.9736 277.591 69.9736 273.125C69.9736 268.661 70.0748 265.041 70.2002 265.041Z" fill="#E0E0E0"/>
<path d="M72.6875 264.833C72.8129 264.833 72.9141 268.407 72.9141 272.813C72.9141 277.221 72.8123 280.794 72.6875 280.794C72.5627 280.794 72.4609 277.221 72.4609 272.813C72.4609 268.407 72.5627 264.833 72.6875 264.833Z" fill="#E0E0E0"/>
<path d="M93.8525 264.297C93.978 264.297 94.0791 268.06 94.0791 272.701C94.0791 277.344 93.978 281.106 93.8525 281.106C93.7277 281.106 93.626 277.343 93.626 272.701C93.626 268.06 93.7277 264.297 93.8525 264.297Z" fill="#E0E0E0"/>
<path d="M90.9297 264.522C91.0545 264.522 91.1562 268.188 91.1562 272.71C91.1562 277.233 91.0545 280.898 90.9297 280.898C90.8049 280.898 90.7031 277.233 90.7031 272.71C90.7031 268.189 90.8042 264.522 90.9297 264.522Z" fill="#E0E0E0"/>
<path d="M267.565 228.004C270.966 226.249 274.972 226.02 278.749 226.644C280.778 226.98 282.893 227.587 284.273 229.111C285.654 230.635 285.915 233.317 284.33 234.626C283.386 235.406 282.07 235.524 280.847 235.51C277.89 235.476 274.61 234.955 272.248 236.734C270.9 237.749 270.004 239.436 268.392 239.935C266.816 240.423 265.037 239.494 264.202 238.071C263.366 236.648 263.338 234.87 263.727 233.266C263.727 233.266 264.138 229.771 267.565 228.004Z" fill="#EBEBEB"/>
<path d="M259.771 212.959C261.851 215.93 265.894 214.946 267.769 213.133C269.643 211.319 270.436 208.691 271.157 206.185C272.805 200.458 274.466 194.451 273.241 188.62C272.875 186.876 272.223 185.137 270.998 183.844C269.773 182.55 267.888 181.781 266.166 182.236C264.128 182.775 262.861 184.771 261.945 186.671C259.254 192.254 257.829 198.442 257.808 204.639C257.798 207.534 258.139 210.569 259.771 212.959Z" fill="#EBEBEB"/>
<path d="M254.059 217.222C256.318 214.542 256.746 210.632 255.741 207.275C254.736 203.916 252.466 201.06 249.849 198.728C246.781 195.994 243.175 193.866 239.298 192.503C237.772 191.966 236.163 191.543 234.553 191.697C232.943 191.851 231.322 192.674 230.571 194.106C229.461 196.224 230.525 198.792 231.677 200.888C233.706 204.58 236.025 208.112 238.607 211.44C240.684 214.118 243.063 216.759 246.229 217.97C249.394 219.18 252.682 219.038 254.361 216.842" fill="#EBEBEB"/>
<path d="M259.63 257.774C259.669 257.776 259.732 257.295 259.818 256.424C259.913 255.442 260.034 254.208 260.176 252.74C260.348 251.19 260.574 249.345 261.005 247.336C261.435 245.332 262.107 243.161 262.969 240.958C263.863 238.768 264.953 236.779 266.226 235.187C267.491 233.588 268.961 232.431 270.343 231.764C271.721 231.083 272.957 230.808 273.811 230.685C274.672 230.596 275.155 230.528 275.155 230.49C275.156 230.452 274.672 230.445 273.787 230.469C272.911 230.527 271.624 230.749 270.171 231.41C268.715 232.056 267.154 233.231 265.828 234.863C264.491 236.487 263.362 238.521 262.452 240.75C261.574 242.991 260.912 245.185 260.502 247.232C260.093 249.277 259.906 251.142 259.784 252.704C259.667 254.269 259.623 255.536 259.602 256.411C259.582 257.287 259.592 257.772 259.63 257.774Z" fill="#E0E0E0"/>
<path d="M259.885 254.939C259.904 254.939 259.916 254.722 259.921 254.313C259.92 253.842 259.918 253.249 259.916 252.521C259.912 250.967 259.913 248.717 259.996 245.94C260.134 240.384 260.612 234.404 261.536 225.975C262.411 218.048 263.586 208.823 264.825 202.825C265.091 201.462 265.358 200.233 265.611 199.159C265.851 198.081 266.056 197.153 266.254 196.401C266.424 195.694 266.562 195.117 266.672 194.66C266.762 194.26 266.8 194.047 266.782 194.042C266.763 194.036 266.689 194.239 266.564 194.63C266.428 195.08 266.256 195.649 266.044 196.346C265.813 197.091 265.577 198.013 265.307 199.087C265.026 200.157 264.731 201.382 264.439 202.744C263.213 208.178 261.915 215.774 260.982 224.224C260.056 232.671 259.639 240.363 259.602 245.933C259.569 248.717 259.629 250.972 259.7 252.527C259.744 253.255 259.78 253.848 259.809 254.317C259.84 254.726 259.865 254.941 259.885 254.939Z" fill="#E0E0E0"/>
<path d="M259.922 240.104C259.961 240.102 259.954 239.437 259.909 238.232C259.84 237.03 259.675 235.292 259.336 233.163C258.977 231.039 258.476 228.517 257.688 225.777C257.347 224.524 256.543 221.522 254.599 217.037C252.037 210.959 248.557 205.991 245.528 202.913C244.819 202.097 244.028 201.507 243.395 200.93C243.067 200.653 242.778 200.377 242.483 200.159C242.187 199.954 241.911 199.764 241.656 199.588C240.659 198.906 240.101 198.547 240.081 198.579C239.991 198.701 242.313 200.067 245.244 203.186C248.164 206.298 251.547 211.233 254.088 217.259C255.505 220.527 256.493 223.443 257.195 225.918C258.005 228.632 258.543 231.128 258.949 233.231C259.336 235.338 259.559 237.058 259.694 238.25C259.804 239.444 259.884 240.106 259.922 240.104Z" fill="#E0E0E0"/>
<path d="M244.59 264.02L246.077 284.385H272.239L273.726 264.02H244.59Z" fill="#EBEBEB"/>
<path d="M276.847 255.992H242.062V264.019H276.847V255.992Z" fill="#EBEBEB"/>
<path d="M242.062 283.605V285.831H243.697H276.272V283.605H242.062Z" fill="#E0E0E0"/>
<path d="M245.299 289.5L243.697 285.584H275.027L273.158 289.5H245.299Z" fill="#E0E0E0"/>
<path d="M273.24 270.676C273.245 270.681 273.204 270.744 273.118 270.862C273.014 271 272.885 271.171 272.726 271.381C272.355 271.856 271.845 272.51 271.203 273.332L271.135 273.419L271.069 273.328C270.111 272.003 268.831 270.233 267.324 268.149H267.54C266.426 269.726 265.185 271.483 263.854 273.369L263.738 273.533L263.608 273.378C262.248 271.76 260.77 270.002 259.237 268.176L259.489 268.173C259.413 268.269 259.331 268.372 259.248 268.475C257.892 270.175 256.58 271.821 255.339 273.376L255.208 273.54L255.088 273.369C253.761 271.492 252.521 269.737 251.4 268.151L251.614 268.161C249.797 270.232 248.255 271.988 247.071 273.336L246.991 273.428L246.929 273.325C246.331 272.318 245.853 271.517 245.507 270.935C245.359 270.676 245.238 270.466 245.142 270.299C245.062 270.153 245.024 270.076 245.031 270.071C245.038 270.067 245.09 270.136 245.183 270.273C245.29 270.434 245.423 270.636 245.587 270.885C245.951 271.456 246.452 272.244 247.08 273.232L246.938 273.22C248.102 271.856 249.619 270.078 251.408 267.982L251.521 267.849L251.622 267.992C252.753 269.571 254.005 271.317 255.344 273.187L255.094 273.18C256.332 271.621 257.641 269.974 258.994 268.272C259.077 268.168 259.158 268.065 259.235 267.97L259.359 267.813L259.487 267.966C261.016 269.795 262.49 271.556 263.846 273.179L263.602 273.188C264.947 271.312 266.2 269.564 267.325 267.995L267.434 267.842L267.541 267.995C269.016 270.101 270.268 271.89 271.206 273.23L271.073 273.226C271.741 272.425 272.271 271.789 272.658 271.325C272.83 271.126 272.97 270.964 273.082 270.834C273.18 270.725 273.233 270.67 273.24 270.676Z" fill="#F5F5F5"/>
<path d="M274.09 263.885C274.09 263.975 267.534 264.048 259.45 264.048C251.362 264.048 244.808 263.975 244.808 263.885C244.808 263.796 251.362 263.723 259.45 263.723C267.533 263.723 274.09 263.796 274.09 263.885Z" fill="#F5F5F5"/>
<path d="M124.931 51.739C124.928 51.7447 124.877 51.7287 124.781 51.6929C124.666 51.6475 124.527 51.5931 124.358 51.5265C123.96 51.3614 123.421 51.1367 122.742 50.8545C121.316 50.2433 119.302 49.3819 116.828 48.322C111.821 46.1409 104.954 43.1489 97.3671 39.8439C97.136 39.7428 96.9056 39.6417 96.6925 39.5483L96.8327 39.5489C89.3741 42.7387 82.6547 45.6116 77.7645 47.7025C75.3485 48.7175 73.3856 49.5425 71.9949 50.1268C71.3338 50.3969 70.809 50.6107 70.4218 50.7687C70.0608 50.9121 69.8688 50.9819 69.8643 50.9703C69.8599 50.9595 70.0423 50.8679 70.3943 50.7041C70.7757 50.5313 71.2909 50.2971 71.9418 50.002C73.3223 49.3934 75.2698 48.5339 77.6679 47.4759C82.5472 45.3601 89.2519 42.4526 96.6944 39.2251L96.7648 39.1943L96.8352 39.2251C97.0483 39.3185 97.2787 39.4196 97.5098 39.5207C105.08 42.8622 111.933 45.8875 116.929 48.0929C119.386 49.1956 121.383 50.0923 122.799 50.7284C123.468 51.0369 123.997 51.2807 124.389 51.4612C124.552 51.5406 124.687 51.6059 124.798 51.6603C124.888 51.707 124.933 51.7339 124.931 51.739Z" fill="#E0E0E0"/>
<path d="M155.289 48.9443H30.2998V142.53H155.289V48.9443Z" fill="#E0E0E0"/>
<path d="M151.388 53.2959H34.6689V138.684H151.388V53.2959Z" fill="#FAFAFA"/>
<path d="M60.4502 90.6025C60.4502 90.6025 60.5718 104.937 61.3008 109.31L79.279 108.459C79.279 108.459 77.7001 94.3683 78.3075 90.6025H60.4502Z" fill="#E0E0E0"/>
<path d="M69.3057 92.6296C69.3057 92.6277 69.328 92.6251 69.3716 92.6226C69.4221 92.6207 69.4861 92.6181 69.5655 92.6149C69.7364 92.6027 69.9892 92.6149 70.3136 92.652C70.6356 92.7032 71.0317 92.7903 71.4567 92.9919C71.8804 93.1928 72.3188 93.5205 72.7009 93.9762C73.0689 94.4395 73.4061 95.0149 73.5629 95.7074C73.7108 96.4005 73.6359 97.1787 73.3741 97.9288C73.2468 98.3058 73.0733 98.6763 72.8692 99.0392C72.6663 99.4015 72.4628 99.7656 72.2932 100.16C71.954 100.945 71.6845 101.809 71.5661 102.712L71.5584 102.771L71.5002 102.772C70.9325 102.781 70.3328 102.791 69.7249 102.801C69.0868 102.811 68.4583 102.821 67.8631 102.83L67.7972 102.831L67.7946 102.764C67.7639 101.86 67.3575 101.036 66.9313 100.307C66.7156 99.9384 66.4794 99.5935 66.258 99.244C66.0417 98.901 65.7985 98.5727 65.6263 98.2143C65.2717 97.4987 65.2109 96.7071 65.3447 96.0248C65.4733 95.3413 65.6999 94.7211 66.0384 94.2335C66.3751 93.7451 66.8039 93.4053 67.2084 93.18C67.6154 92.9535 67.9981 92.8306 68.3124 92.7531C68.6279 92.677 68.8775 92.6469 69.0465 92.6335C69.1309 92.629 69.1956 92.6251 69.2391 92.6264C69.2832 92.6251 69.3057 92.6277 69.3057 92.6296C69.3057 92.6322 69.2833 92.6335 69.2404 92.6379C69.1905 92.6431 69.1277 92.6495 69.0496 92.6578C68.8826 92.6789 68.6356 92.7167 68.3252 92.7999C68.0161 92.8837 67.6404 93.0117 67.2442 93.2408C66.85 93.468 66.4359 93.8053 66.1133 94.284C65.7901 94.7595 65.5719 95.372 65.4509 96.0421C65.3255 96.7109 65.3895 97.4712 65.7351 98.1611C65.9034 98.5087 66.1415 98.8274 66.3649 99.1775C66.5844 99.5211 66.8244 99.8699 67.0432 100.24C67.4752 100.977 67.8957 101.812 67.9303 102.761L67.8618 102.696C68.4576 102.686 69.0861 102.676 69.7236 102.665C70.3316 102.656 70.9313 102.647 71.4989 102.638L71.433 102.699C71.5559 101.771 71.8292 100.905 72.1754 100.109C72.3469 99.7106 72.5581 99.3362 72.7604 98.9778C72.9626 98.6213 73.1348 98.2578 73.2609 97.8898C73.5207 97.1563 73.5968 96.4011 73.4586 95.7298C73.3133 95.0616 72.9856 94.4882 72.6311 94.0338C72.2624 93.5845 71.8381 93.2594 71.426 93.0565C71.0125 92.8523 70.624 92.7595 70.3066 92.7013C69.9866 92.6571 69.7357 92.6373 69.5655 92.6411C69.4861 92.6392 69.4228 92.6373 69.3722 92.636C69.328 92.6335 69.3057 92.6315 69.3057 92.6296Z" fill="white"/>
<path d="M70.2283 102.616C70.2283 102.616 70.2238 102.597 70.2174 102.559C70.211 102.52 70.2021 102.464 70.1899 102.393C70.1669 102.244 70.1342 102.028 70.092 101.751C70.0113 101.193 69.8917 100.385 69.811 99.3799C69.7918 99.1284 69.7745 98.8647 69.7643 98.5895C69.7553 98.3143 69.7432 98.0276 69.7592 97.73C69.7758 97.4337 69.8245 97.1214 69.9614 96.8308C70.099 96.5447 70.3281 96.2753 70.6469 96.1441C70.963 96.0078 71.3656 96.0788 71.6254 96.3303C71.7534 96.4564 71.8392 96.6362 71.8353 96.8225C71.8347 97.0081 71.763 97.1892 71.6517 97.3377C71.5409 97.4887 71.3867 97.6046 71.219 97.6871C71.0507 97.7716 70.8689 97.8241 70.6846 97.8644C70.316 97.9418 69.9358 97.9847 69.5499 97.9962C69.164 98.0052 68.7819 97.9982 68.4081 97.9412C68.2219 97.9105 68.0382 97.8625 67.8673 97.785C67.6958 97.7082 67.5403 97.5988 67.4142 97.4631C67.2888 97.3274 67.1928 97.1623 67.1531 96.9825C67.1115 96.8026 67.139 96.6119 67.2171 96.45C67.2945 96.2887 67.4257 96.1498 67.5928 96.0839C67.7598 96.0161 67.9493 96.0353 68.1041 96.1076C68.2609 96.1799 68.3902 96.2964 68.4856 96.4321C68.5816 96.5697 68.6385 96.7252 68.6763 96.8801C68.7499 97.1924 68.748 97.5022 68.7672 97.7972C68.7979 98.3892 68.8267 98.9402 68.8529 99.4439C68.9035 100.449 68.9445 101.263 68.9733 101.828C68.9861 102.108 68.9963 102.326 69.0033 102.476C69.0059 102.549 69.0078 102.605 69.0097 102.645C69.011 102.683 69.0104 102.703 69.0104 102.703C69.0104 102.703 69.0072 102.684 69.0046 102.646C69.0014 102.606 68.9976 102.55 68.9925 102.478C68.9829 102.327 68.9694 102.109 68.9521 101.83C68.9195 101.265 68.8721 100.451 68.8139 99.4465C68.7857 98.9428 68.7544 98.3918 68.7211 97.8004C68.7013 97.5054 68.7013 97.1962 68.6289 96.8922C68.5918 96.7418 68.5355 96.5914 68.4446 96.4622C68.3537 96.3329 68.2296 96.2228 68.083 96.1556C67.9377 96.0884 67.7637 96.0718 67.612 96.1338C67.4597 96.194 67.3374 96.3226 67.2651 96.4743C67.1921 96.626 67.1665 96.8039 67.2056 96.9716C67.2427 97.1406 67.3336 97.2974 67.4539 97.4273C67.6958 97.6922 68.0523 97.8311 68.4171 97.8881C68.7845 97.9438 69.1659 97.9508 69.548 97.9425C69.9307 97.931 70.3083 97.8887 70.6725 97.8119C70.8536 97.7722 71.0315 97.7204 71.1941 97.6398C71.3566 97.5598 71.5025 97.4497 71.6075 97.307C71.7131 97.1662 71.7803 96.9959 71.7809 96.8244C71.7848 96.6522 71.7067 96.4884 71.5877 96.3706C71.3445 96.1351 70.9643 96.0654 70.6661 96.194C70.3627 96.3175 70.1393 96.5761 70.0056 96.8538C69.8712 97.1354 69.8225 97.4414 69.8053 97.7345C69.7886 98.0289 69.7995 98.315 69.8072 98.5895C69.8161 98.8641 69.8321 99.1278 69.8501 99.3786C69.9256 100.383 70.0395 101.191 70.1131 101.75C70.1509 102.028 70.1803 102.243 70.2008 102.393C70.2104 102.465 70.2174 102.52 70.2225 102.561C70.227 102.596 70.2283 102.616 70.2283 102.616Z" fill="white"/>
<path d="M67.8608 102.711C67.8698 102.719 67.8845 102.934 67.9075 103.308C67.9299 103.742 67.9568 104.261 67.9875 104.866L67.9728 104.828C68.3344 105.245 68.7421 105.715 69.183 106.223L69.121 106.196C69.5613 106.171 70.0317 106.145 70.52 106.117L70.4611 106.147C70.6858 105.872 70.9194 105.587 71.1581 105.296C71.2758 105.153 71.393 105.011 71.5075 104.871L71.489 104.925C71.4704 104.105 71.4525 103.328 71.4358 102.62L71.512 102.693C70.4925 102.704 69.6086 102.714 68.8982 102.722C68.6147 102.722 68.3658 102.721 68.143 102.721C67.9645 102.719 67.8666 102.716 67.8608 102.711C67.855 102.705 67.9421 102.697 68.1098 102.687C68.3274 102.675 68.5706 102.663 68.847 102.649C69.5702 102.62 70.4701 102.585 71.5075 102.544L71.5818 102.541L71.5843 102.617C71.6054 103.324 71.6291 104.101 71.6534 104.921L71.6547 104.951L71.6349 104.976C71.5203 105.116 71.4038 105.258 71.2861 105.401C71.0467 105.692 70.8125 105.977 70.5872 106.25L70.5642 106.279L70.5283 106.281C70.04 106.304 69.5696 106.327 69.1286 106.349L69.0902 106.351L69.0659 106.322C68.6333 105.807 68.2333 105.33 67.8787 104.908L67.864 104.89V104.869C67.8582 104.249 67.8531 103.717 67.8486 103.272C67.8493 102.901 67.8518 102.702 67.8608 102.711Z" fill="white"/>
<path d="M71.4724 104.735C71.4705 104.739 71.4237 104.717 71.3399 104.679C71.2561 104.641 71.1325 104.589 70.977 104.535C70.6666 104.428 70.2161 104.327 69.7137 104.342C69.2113 104.357 68.7671 104.485 68.4637 104.612C68.3114 104.675 68.1917 104.734 68.1098 104.778C68.0279 104.82 67.9831 104.845 67.9805 104.842C67.9786 104.838 68.0202 104.808 68.0989 104.758C68.1777 104.709 68.296 104.644 68.4477 104.575C68.7504 104.438 69.2004 104.302 69.7111 104.287C70.2218 104.271 70.6794 104.38 70.9898 104.498C71.1453 104.557 71.2676 104.615 71.3495 104.659C71.4314 104.704 71.4743 104.732 71.4724 104.735Z" fill="white"/>
<path d="M71.4724 104.175C71.4705 104.179 71.4237 104.157 71.3399 104.118C71.2561 104.08 71.1325 104.028 70.977 103.974C70.6666 103.867 70.2161 103.766 69.713 103.782C69.2106 103.797 68.7665 103.925 68.4631 104.051C68.3108 104.114 68.1911 104.174 68.1098 104.217C68.0279 104.26 67.9831 104.285 67.9805 104.281C67.9786 104.278 68.0196 104.247 68.0989 104.198C68.1777 104.149 68.2961 104.083 68.4477 104.015C68.7505 103.878 69.2004 103.742 69.7111 103.726C70.2218 103.71 70.6794 103.819 70.9898 103.937C71.146 103.996 71.2676 104.055 71.3495 104.099C71.4308 104.143 71.4737 104.172 71.4724 104.175Z" fill="white"/>
<path d="M71.4392 103.642C71.4372 103.646 71.3905 103.624 71.3067 103.586C71.2222 103.548 71.0993 103.496 70.9438 103.442C70.6334 103.334 70.1828 103.234 69.6804 103.249C69.178 103.265 68.7339 103.392 68.4305 103.518C68.2782 103.581 68.1585 103.64 68.0766 103.684C67.9947 103.727 67.9499 103.752 67.9473 103.748C67.9454 103.745 67.987 103.714 68.0657 103.665C68.1444 103.615 68.2629 103.55 68.4145 103.482C68.7173 103.345 69.1672 103.208 69.6779 103.193C70.1893 103.177 70.6462 103.286 70.9566 103.404C71.1128 103.463 71.2344 103.521 71.3163 103.565C71.3976 103.611 71.4404 103.64 71.4392 103.642Z" fill="white"/>
<path d="M40.4268 67.1699C40.4268 67.1699 40.5484 81.504 41.2773 85.8771L59.2556 85.0266C59.2556 85.0266 57.676 70.9357 58.2834 67.1699H40.4268Z" fill="#EBEBEB"/>
<path d="M55.5748 73.1909C55.5805 73.2882 52.8842 73.5295 49.5536 73.7298C46.2218 73.9301 43.5165 74.014 43.5108 73.9167C43.505 73.8194 46.2007 73.5781 49.5325 73.3778C52.8631 73.1775 55.5684 73.0936 55.5748 73.1909Z" fill="white"/>
<path d="M55.5787 76.2271C55.5844 76.3243 52.8881 76.5656 49.5575 76.7659C46.2251 76.9663 43.5204 77.0501 43.5147 76.9528C43.5089 76.8555 46.2046 76.6143 49.5364 76.4139C52.867 76.2136 55.5729 76.1298 55.5787 76.2271Z" fill="white"/>
<path d="M52.523 79.2085C52.5288 79.3058 50.9947 79.4773 49.0971 79.5912C47.1989 79.7051 45.6552 79.7192 45.6494 79.6219C45.6437 79.5247 47.1771 79.3538 49.076 79.2392C50.9736 79.1247 52.5173 79.1112 52.523 79.2085Z" fill="white"/>
<path d="M39.5762 109.341C39.5762 109.341 39.6978 123.676 40.4267 128.049L58.405 127.198C58.405 127.198 56.8255 113.107 57.4335 109.341H39.5762V109.341Z" fill="#EBEBEB"/>
<path d="M54.7242 115.363C54.7299 115.46 52.0336 115.701 48.703 115.901C45.3712 116.102 42.6659 116.186 42.6602 116.088C42.6544 115.991 45.3501 115.75 48.6819 115.549C52.0125 115.349 54.7184 115.266 54.7242 115.363Z" fill="white"/>
<path d="M54.7281 118.398C54.7338 118.495 52.0375 118.736 48.707 118.937C45.3751 119.137 42.6698 119.221 42.6641 119.123C42.6583 119.026 45.354 118.785 48.6858 118.585C52.017 118.384 54.7223 118.301 54.7281 118.398Z" fill="white"/>
<path d="M51.6724 121.379C51.6782 121.476 50.1441 121.648 48.2465 121.762C46.3483 121.876 44.8046 121.89 44.7988 121.793C44.7931 121.695 46.3265 121.524 48.2254 121.41C50.1236 121.296 51.6667 121.282 51.6724 121.379Z" fill="white"/>
<path d="M88.708 70.9688L90.4891 112.312L142.101 112.935L139.784 71.5147L88.708 70.9688Z" fill="#EBEBEB"/>
<path d="M139.379 70.6719H88.1104V109.385H139.379V70.6719Z" fill="#F5F5F5"/>
<path d="M139.378 109.385C139.378 109.385 139.368 109.135 139.362 108.667C139.359 108.188 139.353 107.498 139.346 106.601C139.337 104.786 139.325 102.142 139.309 98.7675C139.291 92.0174 139.264 82.3579 139.233 70.6721L139.378 70.8167C124.884 70.8257 107.193 70.8366 88.1138 70.8481H88.1093L88.2853 70.6721C88.2789 84.5953 88.2731 97.778 88.268 109.384L88.1093 109.226C103.279 109.258 116.075 109.286 125.09 109.305C129.599 109.323 133.16 109.338 135.608 109.347C136.822 109.356 137.758 109.362 138.404 109.366C138.715 109.37 138.953 109.374 139.127 109.375C139.291 109.379 139.378 109.385 139.378 109.385C139.378 109.385 139.303 109.391 139.145 109.394C138.976 109.396 138.743 109.399 138.44 109.403C137.801 109.407 136.877 109.414 135.676 109.422C133.236 109.432 129.688 109.446 125.195 109.464C116.154 109.484 103.322 109.511 88.1106 109.544L87.9519 109.544V109.385C87.9467 97.778 87.941 84.5953 87.9346 70.6727V70.4961H88.1112H88.1157C107.195 70.5076 124.886 70.5185 139.38 70.5275H139.525L139.524 70.6721C139.493 82.3956 139.467 92.0865 139.449 98.8583C139.433 102.218 139.42 104.852 139.412 106.659C139.405 107.544 139.399 108.225 139.395 108.698C139.389 109.157 139.378 109.385 139.378 109.385Z" fill="#E0E0E0"/>
<path d="M115.078 78.873H94.2949V105.029H115.078V78.873Z" fill="#F5F5F5"/>
<path d="M115.077 105.029C115.074 105.026 115.071 104.982 115.068 104.898C115.066 104.798 115.063 104.677 115.059 104.526C115.055 104.181 115.049 103.705 115.041 103.095C115.031 101.831 115.017 100.018 114.999 97.7289C114.979 93.1247 114.952 86.6095 114.92 78.8738L115.078 79.0319C108.885 79.037 101.797 79.0434 94.2973 79.0505C94.2557 79.0876 94.6288 78.7196 94.4713 78.879V78.886V78.9001V78.9282V78.9852V79.0985V79.325V79.7775V80.6793C94.4713 81.279 94.4713 81.8761 94.4707 82.47C94.47 83.6578 94.4694 84.8335 94.4694 85.9945C94.4675 88.317 94.4656 90.5839 94.4637 92.7817C94.456 97.1746 94.4483 101.292 94.4413 105.029L94.2947 104.883C100.53 104.914 105.704 104.94 109.342 104.958C111.147 104.974 112.57 104.987 113.564 104.996C114.039 105.003 114.411 105.009 114.684 105.013C114.938 105.018 115.077 105.029 115.077 105.029C115.083 105.034 114.96 105.04 114.715 105.045C114.448 105.049 114.086 105.055 113.623 105.062C112.636 105.071 111.225 105.084 109.435 105.1C105.774 105.118 100.569 105.145 94.2953 105.175L94.1494 105.176V105.029C94.1424 101.291 94.1353 97.174 94.1277 92.781C94.1257 90.5833 94.1238 88.317 94.1219 85.9938C94.1212 84.8322 94.1206 83.6572 94.1206 82.4694C94.1206 81.8754 94.1206 81.2783 94.12 80.6786V79.7769V79.3244V79.0978V78.9846V78.9276V78.8994V78.8854V78.8783C93.9632 79.0338 94.3331 78.6582 94.2985 78.6972C101.798 78.7036 108.886 78.71 115.079 78.7158H115.238L115.237 78.8738C115.205 86.6524 115.178 93.2022 115.159 97.8313C115.141 100.105 115.127 101.906 115.117 103.162C115.109 103.758 115.103 104.224 115.099 104.561C115.095 104.706 115.092 104.821 115.09 104.915C115.084 104.994 115.081 105.033 115.077 105.029Z" fill="#E0E0E0"/>
<path d="M134.921 72.8887H95.0908V76.6576H134.921V72.8887Z" fill="#F5F5F5"/>
<path d="M134.92 76.6565C134.916 76.6521 134.911 76.5644 134.906 76.3986C134.902 76.2149 134.897 75.9737 134.89 75.6677C134.88 75.013 134.867 74.0825 134.849 72.8882L134.92 72.9593C128.204 73.0213 112.893 73.0642 95.0932 73.0642H95.0913C95.4433 72.7122 95.1886 72.9669 95.2673 72.8889V72.8901V72.894V72.9017V72.917V72.9471V73.0073V73.1282V73.3701V73.8521C95.2673 74.1721 95.2673 74.4908 95.2673 74.8063C95.2673 75.4373 95.2667 76.0569 95.2667 76.6572L95.0913 76.4818C106.23 76.5113 116.156 76.5375 123.324 76.5567C126.897 76.5785 129.781 76.5964 131.797 76.6092C132.782 76.6194 133.554 76.6277 134.103 76.6335C134.353 76.6386 134.553 76.6425 134.707 76.6457C134.844 76.6489 134.917 76.6527 134.92 76.6565C134.924 76.6604 134.86 76.6649 134.73 76.6687C134.582 76.6719 134.39 76.6757 134.149 76.6809C133.609 76.6866 132.851 76.6949 131.883 76.7052C129.877 76.7173 127.006 76.7353 123.45 76.757C116.25 76.7762 106.28 76.8025 95.0907 76.8319L94.9153 76.8325V76.6565C94.9153 76.0562 94.9153 75.4367 94.9147 74.8057C94.9147 74.4901 94.9147 74.1714 94.9147 73.8514V73.3695V73.1276V73.0066V72.9465V72.9164V72.901V72.8933V72.8895V72.8882C94.9934 72.8095 94.7387 73.0636 95.0913 72.7109H95.0932C112.893 72.7109 128.204 72.7538 134.92 72.8159L134.993 72.8165L134.991 72.8876C134.974 74.0997 134.96 75.0437 134.951 75.7087C134.944 76.0082 134.938 76.2444 134.935 76.4236C134.929 76.5829 134.925 76.661 134.92 76.6565Z" fill="#E0E0E0"/>
<path d="M134.921 78.873H117.623V94.6369H134.921V78.873Z" fill="#F5F5F5"/>
<path d="M134.921 94.6373C134.915 94.6315 134.91 94.5279 134.904 94.3327C134.899 94.1144 134.894 93.8315 134.887 93.477C134.877 92.7064 134.864 91.6261 134.848 90.2635C134.829 87.4898 134.802 83.5743 134.771 78.8735L134.921 79.0232C129.925 79.0309 123.984 79.0399 117.624 79.0495C117.584 79.0872 117.956 78.7167 117.799 78.876V78.8805V78.8888V78.9055V78.9387V79.0059V79.1403V79.4085V79.9435C117.799 80.2994 117.799 80.6546 117.799 81.0072C117.798 81.7131 117.798 82.4133 117.797 83.1064C117.796 84.492 117.794 85.8501 117.793 87.173C117.787 89.8175 117.782 92.3224 117.777 94.636L117.622 94.4811C122.752 94.5131 127.05 94.54 130.099 94.5592C131.6 94.5765 132.791 94.5906 133.639 94.6002C134.032 94.6079 134.345 94.6136 134.584 94.6181C134.8 94.6251 134.915 94.6309 134.921 94.6373C134.926 94.6431 134.823 94.6488 134.618 94.6546C134.387 94.6591 134.085 94.6648 133.704 94.6725C132.865 94.6821 131.685 94.6962 130.199 94.7135C127.126 94.7327 122.793 94.7595 117.622 94.7915L117.468 94.7928L117.467 94.6373C117.462 92.3237 117.457 89.8187 117.451 87.1743C117.45 85.8514 117.449 84.4933 117.447 83.1077C117.447 82.4146 117.446 81.7144 117.445 81.0085C117.445 80.6552 117.445 80.3007 117.445 79.9448V79.4098V79.1416V79.0072V78.94V78.9067V78.8901V78.8818V78.8773C117.288 79.0335 117.66 78.6597 117.623 78.6981C123.983 78.7077 129.923 78.7167 134.92 78.7243H135.071L135.07 78.8741C135.038 83.6139 135.011 87.5627 134.993 90.3595C134.976 91.7074 134.963 92.7768 134.954 93.5391C134.947 93.8815 134.941 94.1547 134.937 94.3659C134.932 94.5503 134.926 94.6424 134.921 94.6373Z" fill="#E0E0E0"/>
<path d="M134.92 97.1084H117.622V105.029H134.92V97.1084Z" fill="#F5F5F5"/>
<path d="M134.92 105.029C134.911 105.02 134.902 104.822 134.892 104.455C134.885 104.057 134.874 103.528 134.86 102.864C134.844 101.467 134.82 99.5102 134.791 97.1083L134.919 97.2363C130.408 97.2491 124.321 97.2658 117.622 97.2843C117.464 97.4418 117.836 97.0699 117.797 97.109V97.1109V97.1147V97.123V97.139V97.1717V97.2369V97.3675V97.6273V98.1457C117.797 98.4901 117.797 98.8331 117.797 99.1736C117.796 99.8545 117.795 100.528 117.795 101.19C117.792 102.515 117.79 103.799 117.788 105.028L117.621 104.861C122.609 104.893 126.902 104.921 129.99 104.941C131.503 104.96 132.718 104.976 133.595 104.987C133.994 104.995 134.316 105.002 134.568 105.008C134.794 105.016 134.913 105.022 134.92 105.029C134.927 105.036 134.821 105.042 134.609 105.049C134.366 105.055 134.056 105.062 133.67 105.071C132.803 105.082 131.6 105.097 130.104 105.117C126.988 105.136 122.656 105.164 117.621 105.197L117.454 105.198V105.03C117.452 103.801 117.45 102.517 117.448 101.192C117.447 100.53 117.446 99.8565 117.446 99.1755C117.446 98.835 117.445 98.492 117.445 98.1477V97.6293V97.3694V97.2389V97.1736V97.141V97.1249V97.1166V97.1128V97.1109C117.407 97.148 117.779 96.7761 117.622 96.9336C124.321 96.9521 130.408 96.9694 134.919 96.9816L135.048 96.9822L135.047 97.1102C135.018 99.5441 134.995 101.528 134.979 102.944C134.965 103.595 134.954 104.114 134.947 104.505C134.938 104.857 134.929 105.038 134.92 105.029Z" fill="#E0E0E0"/>
<path d="M114.564 78.918C108.13 87.805 100.728 96.1417 94.2949 105.029L114.564 78.918Z" fill="white"/>
<path d="M94.295 105.029C94.2854 105.022 94.3436 104.922 94.4646 104.737C94.6118 104.522 94.791 104.259 95.0073 103.941C95.4828 103.251 96.1938 102.271 97.0879 101.071C98.8735 98.6695 101.429 95.4189 104.291 91.8637C107.154 88.3072 109.738 85.0848 111.572 82.7245C112.462 81.5751 113.195 80.6292 113.74 79.9252C113.978 79.6231 114.175 79.3735 114.336 79.168C114.475 78.9972 114.554 78.9108 114.563 78.9184C114.573 78.9255 114.514 79.026 114.394 79.2103C114.246 79.426 114.067 79.689 113.851 80.0064C113.375 80.6951 112.664 81.6756 111.77 82.8756C109.985 85.2775 107.428 88.5287 104.566 92.0845C101.704 95.6391 99.1206 98.8615 97.2863 101.222C96.3961 102.372 95.6633 103.318 95.118 104.022C94.8799 104.324 94.6834 104.573 94.5222 104.779C94.3826 104.95 94.3046 105.036 94.295 105.029Z" fill="#E0E0E0"/>
<path d="M115.077 105.03C115.001 105.09 110.286 99.2838 104.548 92.062C98.8078 84.8377 94.2177 78.9343 94.2939 78.8735C94.3701 78.8127 99.0837 84.6182 104.824 91.8425C110.563 99.0642 115.153 104.969 115.077 105.03Z" fill="#E0E0E0"/>
<path d="M90.4887 78.9289C90.4887 80.7248 89.0327 82.1801 87.2375 82.1801C85.4417 82.1801 83.9863 80.7248 83.9863 78.9289C83.9863 77.1331 85.4417 75.6777 87.2375 75.6777C89.0334 75.6777 90.4887 77.1337 90.4887 78.9289Z" fill="#E0E0E0"/>
<path d="M143.665 71.0373C143.665 72.8332 142.209 74.2885 140.413 74.2885C138.617 74.2885 137.162 72.8332 137.162 71.0373C137.162 69.2415 138.618 67.7861 140.413 67.7861C142.209 67.7861 143.665 69.2415 143.665 71.0373Z" fill="#E0E0E0"/>
<path d="M270.848 93.6846H233.381V147.992H270.848V93.6846Z" fill="#E0E0E0"/>
<path d="M268.971 93.6846H231.504V147.992H268.971V93.6846Z" fill="#F5F5F5"/>
<path d="M264.316 99.5654H236.158V142.109H264.316V99.5654Z" fill="white"/>
<path d="M264.316 142.11C264.316 142.11 264.312 142.037 264.31 141.902C264.309 141.761 264.307 141.561 264.305 141.298C264.302 140.764 264.299 139.981 264.293 138.965C264.288 136.926 264.279 133.954 264.268 130.201C264.257 122.699 264.242 112.076 264.222 99.5656L264.316 99.6591C255.713 99.6616 246.181 99.6642 236.162 99.6674H236.158L236.26 99.5656C236.252 115.615 236.245 130.413 236.24 142.11L236.158 142.028C244.733 142.046 251.762 142.061 256.653 142.071C259.1 142.08 261.01 142.087 262.315 142.092C262.964 142.096 263.461 142.099 263.801 142.101C264.139 142.104 264.316 142.11 264.316 142.11C264.316 142.11 264.15 142.115 263.819 142.119C263.482 142.121 262.99 142.124 262.348 142.128C261.047 142.132 259.142 142.139 256.704 142.148C251.801 142.158 244.754 142.173 236.158 142.191H236.077V142.11C236.071 130.412 236.064 115.615 236.057 99.5656V99.4639H236.158H236.162C246.181 99.4671 255.713 99.4696 264.316 99.4722H264.409V99.5656C264.391 112.101 264.375 122.745 264.363 130.263C264.352 134.007 264.344 136.971 264.338 139.006C264.333 140.014 264.329 140.79 264.327 141.321C264.324 141.578 264.322 141.775 264.321 141.913C264.32 142.045 264.316 142.11 264.316 142.11Z" fill="#E0E0E0"/>
<path d="M269.077 93.6843C269.099 93.7015 268.845 94.0727 268.409 94.6545C267.974 95.2363 267.357 96.0279 266.651 96.8843C265.946 97.7406 265.287 98.4983 264.799 99.0372C264.311 99.5761 263.996 99.8967 263.975 99.8782C263.953 99.8596 264.23 99.5051 264.69 98.9431C265.192 98.3339 265.81 97.5838 266.494 96.7543C267.177 95.9249 267.794 95.1748 268.296 94.5649C268.76 94.0062 269.055 93.6663 269.077 93.6843Z" fill="#E0E0E0"/>
<path d="M264.46 141.973C265.858 144.197 267.51 146.261 269.371 148.115L264.46 141.973Z" fill="white"/>
<path d="M269.371 148.115C269.352 148.133 269.018 147.844 268.515 147.336C268.011 146.829 267.344 146.099 266.662 145.246C265.98 144.393 265.415 143.582 265.031 142.979C264.647 142.376 264.437 141.986 264.46 141.972C264.485 141.956 264.737 142.318 265.15 142.898C265.563 143.478 266.143 144.271 266.821 145.119C267.498 145.966 268.144 146.706 268.619 147.237C269.095 147.768 269.392 148.094 269.371 148.115Z" fill="#E0E0E0"/>
<path d="M231.498 147.95C233.134 145.931 234.77 143.913 236.406 141.895L231.498 147.95Z" fill="white"/>
<path d="M236.406 141.893C236.449 141.928 235.386 143.313 234.031 144.985C232.676 146.657 231.542 147.984 231.498 147.949C231.455 147.914 232.518 146.529 233.873 144.857C235.228 143.185 236.362 141.858 236.406 141.893Z" fill="#E0E0E0"/>
<path d="M231.504 93.6843C231.549 93.6491 232.615 94.9246 233.886 96.5317C235.158 98.14 236.153 99.4712 236.109 99.5057C236.064 99.5409 234.998 98.2661 233.726 96.6577C232.455 95.0507 231.46 93.7189 231.504 93.6843Z" fill="#E0E0E0"/>
<path d="M255.544 108.204H246.115V134.973H255.544V108.204Z" fill="#E0E0E0"/>
<path d="M262.216 35.9798L256.853 36.0088L256.997 62.6968L262.36 62.6678L262.216 35.9798Z" fill="#E0E0E0"/>
<path d="M224.277 36.05L210.388 36.125L210.467 50.8584L224.357 50.7834L224.277 36.05Z" fill="#EBEBEB"/>
<path d="M238.101 35.9758L224.212 36.0508L224.291 50.7842L238.181 50.7092L238.101 35.9758Z" fill="#F5F5F5"/>
<path d="M210.405 40.2029C219.635 40.2791 228.888 40.2253 238.117 40.0755C238.307 40.073 238.306 39.7818 238.115 39.7805C228.885 39.7293 219.632 39.7747 210.403 39.9501C210.241 39.9533 210.242 40.2016 210.405 40.2029Z" fill="#E0E0E0"/>
<path d="M226.963 50.5395L201.729 50.6758L201.793 62.6822L227.028 62.5459L226.963 50.5395Z" fill="#EBEBEB"/>
<path d="M252.079 50.4028L226.845 50.5391L226.91 62.5455L252.144 62.4092L252.079 50.4028Z" fill="#F5F5F5"/>
<path d="M201.742 54.0221C218.505 54.2122 235.328 54.042 252.091 53.7738C252.281 53.7706 252.279 53.4794 252.089 53.4788C235.325 53.3904 218.502 53.4 201.741 53.7693C201.578 53.7725 201.579 54.0202 201.742 54.0221Z" fill="#E0E0E0"/>
<path d="M290.069 62.6895H192.305V66.9909H290.069V62.6895Z" fill="#E0E0E0"/>
<path d="M212.28 64.7578H208.312V79.4356H212.28V64.7578Z" fill="#E0E0E0"/>
<path d="M271.524 64.7568H267.556V79.4346H271.524V64.7568Z" fill="#E0E0E0"/>
<path d="M267.449 26.0277L262.086 26.0566L262.284 62.7619L267.647 62.733L267.449 26.0277Z" fill="#EBEBEB"/>
<path d="M275.83 32.8603L267.496 32.9053L267.657 62.6506L275.991 62.6055L275.83 32.8603Z" fill="#F5F5F5"/>
<path d="M275.768 38.6017C275.768 38.6817 273.902 38.7463 271.602 38.7463C269.3 38.7463 267.435 38.6817 267.435 38.6017C267.435 38.5217 269.3 38.457 271.602 38.457C273.902 38.457 275.768 38.5217 275.768 38.6017Z" fill="#E0E0E0"/>
<path d="M275.768 37.3517C275.768 37.4317 273.902 37.4963 271.602 37.4963C269.3 37.4963 267.435 37.4317 267.435 37.3517C267.435 37.2717 269.3 37.207 271.602 37.207C273.902 37.2077 275.768 37.2723 275.768 37.3517Z" fill="#E0E0E0"/>
<path d="M275.768 58.1407C275.768 58.2207 273.902 58.2854 271.602 58.2854C269.3 58.2854 267.435 58.2207 267.435 58.1407C267.435 58.0607 269.3 57.9961 271.602 57.9961C273.902 57.9961 275.768 58.0607 275.768 58.1407Z" fill="#E0E0E0"/>
<path d="M275.768 56.8907C275.768 56.9707 273.902 57.0354 271.602 57.0354C269.3 57.0354 267.435 56.9707 267.435 56.8907C267.435 56.8107 269.3 56.7461 271.602 56.7461C273.902 56.7467 275.768 56.8114 275.768 56.8907Z" fill="#E0E0E0"/>
<path d="M271.735 54.1646C271.655 54.1646 271.591 51.1636 271.591 47.4625C271.591 43.7601 271.655 40.7598 271.735 40.7598C271.815 40.7598 271.88 43.7601 271.88 47.4625C271.88 51.1636 271.815 54.1646 271.735 54.1646Z" fill="#E0E0E0"/>
<path d="M284.93 40.1748H275.858V62.6266H284.93V40.1748Z" fill="#EBEBEB"/>
<path d="M280.65 56.8046C279.457 56.8046 278.623 55.9553 278.623 54.7854C278.623 54.1505 278.868 53.6001 279.357 53.2705L279.563 53.554C279.158 53.8446 278.967 54.2881 278.967 54.7854C278.967 55.7268 279.64 56.4148 280.65 56.4148C281.66 56.4148 282.333 55.7262 282.333 54.7854C282.333 54.2881 282.142 53.8446 281.736 53.554L281.943 53.2705C282.425 53.5995 282.677 54.1505 282.677 54.7854C282.677 55.9553 281.836 56.8046 280.65 56.8046Z" fill="#FAFAFA"/>
<path d="M282.165 52.7125L281.859 52.5365C282.119 52.2306 282.341 51.6872 282.341 51.0984C282.341 50.2568 282.043 49.9208 281.591 49.9208C280.428 49.9208 281.285 52.5672 279.717 52.5672C279.113 52.5672 278.623 52.0622 278.623 51.0523C278.623 50.5474 278.776 49.997 279.013 49.6834L279.319 49.8594C279.074 50.1954 278.959 50.6318 278.959 51.06C278.959 51.8402 279.28 52.1851 279.708 52.1851C280.909 52.1851 280.06 49.5381 281.582 49.5381C282.233 49.5381 282.676 50.0962 282.676 51.1138C282.677 51.7717 282.455 52.3989 282.165 52.7125Z" fill="#FAFAFA"/>
<path d="M282.165 49.0572L281.859 48.8812C282.119 48.5753 282.341 48.0319 282.341 47.4425C282.341 46.6015 282.043 46.2649 281.591 46.2649C280.428 46.2649 281.285 48.9113 279.717 48.9113C279.113 48.9113 278.623 48.4063 278.623 47.3971C278.623 46.8915 278.776 46.3411 279.013 46.0275L279.319 46.2035C279.074 46.5401 278.959 46.9766 278.959 47.4047C278.959 48.1843 279.28 48.5292 279.708 48.5292C280.909 48.5292 280.06 45.8828 281.582 45.8828C282.233 45.8828 282.676 46.4409 282.676 47.4585C282.677 48.1164 282.455 48.7436 282.165 49.0572Z" fill="#FAFAFA"/>
<path d="M264.683 33.8472C265.535 33.8472 266.225 33.1569 266.225 32.3054C266.225 31.4539 265.535 30.7637 264.683 30.7637C263.832 30.7637 263.142 31.4539 263.142 32.3054C263.142 33.1569 263.832 33.8472 264.683 33.8472Z" fill="#E0E0E0"/>
<path d="M265.16 36.5449H264.207V58.3804H265.16V36.5449Z" fill="#E0E0E0"/>
<path d="M301.316 290.573C301.316 290.665 239.5 290.739 163.263 290.739C86.9998 290.739 25.1963 290.664 25.1963 290.573C25.1963 290.48 86.9992 290.406 163.263 290.406C239.5 290.406 301.316 290.48 301.316 290.573Z" fill="#263238"/>
<path d="M99.9559 70.5527C89.6852 86.7076 90.3578 109.106 101.579 124.615C109.059 134.954 120.281 141.885 129.192 151.02C138.102 160.156 144.87 173.619 140.167 185.483C135.38 197.56 121.359 202.473 110.858 210.123C99.4208 218.456 91.3876 231.327 88.9268 245.262C86.466 259.198 89.6045 274.041 97.4957 285.788H206.567C206.567 285.788 225.727 249.273 201.093 221.446C176.46 193.618 163.23 193.162 164.142 174.915C165.055 156.668 177.828 150.737 185.126 143.895C192.425 137.053 228.008 121.086 207.023 70.5534L99.9559 70.5527Z" fill="#FAFAFA"/>
<path d="M99.9556 70.553C99.9556 70.553 100.589 70.5427 101.833 70.5376C103.082 70.5344 104.934 70.5293 107.362 70.5229C112.23 70.5159 119.405 70.5056 128.646 70.4922C147.148 70.4787 173.922 70.4589 207.023 70.4346H207.103L207.132 70.5075C208.622 74.2925 210.128 78.1882 211.196 82.3181C212.294 86.4295 213.195 90.713 213.513 95.152C213.847 99.5821 213.704 104.157 212.822 108.7C211.911 113.231 210.288 117.718 207.892 121.869C206.7 123.949 205.298 125.924 203.783 127.83C202.251 129.725 200.555 131.506 198.759 133.206C196.961 134.904 195.046 136.503 193.056 138.033C191.072 139.569 189 141.02 186.977 142.552C185.964 143.316 185.038 144.173 184.073 145.032C183.103 145.875 182.104 146.687 181.096 147.492C179.081 149.105 177.045 150.716 175.123 152.481C171.244 155.951 167.967 160.285 166.165 165.329C165.291 167.846 164.664 170.483 164.459 173.183C164.405 173.857 164.315 174.53 164.29 175.207C164.276 175.885 164.238 176.564 164.27 177.244C164.279 178.604 164.432 179.962 164.679 181.302C165.191 183.981 166.317 186.548 167.952 188.773C169.565 191.019 171.552 192.996 173.609 194.898C177.751 198.684 182.142 202.298 186.35 206.2C190.578 210.081 194.683 214.177 198.637 218.483C200.599 220.643 202.594 222.816 204.31 225.227C206.084 227.592 207.573 230.177 208.882 232.851C211.462 238.225 213.056 244.12 213.579 250.147C214.141 256.175 213.711 262.318 212.516 268.33C211.925 271.338 211.14 274.318 210.176 277.249C209.212 280.181 208.099 283.072 206.713 285.864L206.669 285.954H206.566C205.681 285.954 204.72 285.954 203.758 285.954C166.525 285.951 130.6 285.949 97.4955 285.946H97.4103L97.3636 285.876C92.1668 278.074 89.0814 269.112 88.2302 260.13C87.3258 251.147 88.7083 242.138 92.0036 234.143C95.2561 226.118 100.312 219.08 106.422 213.549C109.467 210.761 112.863 208.48 116.265 206.369C119.67 204.255 123.104 202.3 126.351 200.161C129.584 198.017 132.699 195.733 135.229 192.939C137.767 190.168 139.707 186.914 140.722 183.416C141.742 179.914 141.752 176.243 141.156 172.785C140.551 169.316 139.33 166.035 137.785 163.013C136.235 159.987 134.356 157.209 132.295 154.674C130.238 152.131 127.952 149.873 125.652 147.743C121.034 143.492 116.31 139.775 112.056 135.955C109.926 134.049 107.908 132.125 106.05 130.148C104.205 128.16 102.519 126.122 101.07 124.01C98.1495 119.798 96.1463 115.359 94.8299 111.075C93.5115 106.786 92.8561 102.639 92.7057 98.8243C92.6161 97.872 92.6513 96.9376 92.6526 96.0256C92.6647 95.1136 92.6372 94.2221 92.7319 93.3574C92.7985 92.4915 92.8638 91.6474 92.9271 90.825C93.0257 90.007 93.1607 89.2147 93.2708 88.4429C94.2308 82.2643 96.0951 77.7498 97.5486 74.8602C97.8967 74.1261 98.2033 73.4803 98.5354 72.9575C98.8471 72.4269 99.1083 71.9814 99.3182 71.6224C99.7393 70.9101 99.9556 70.553 99.9556 70.553C99.9108 70.6317 99.7329 70.9459 99.3374 71.6448C99.1313 72.0045 98.8753 72.4506 98.57 72.9824C98.2455 73.5027 97.9422 74.1498 97.5985 74.8851C96.163 77.7792 94.3185 82.2925 93.3771 88.4602C93.2695 89.2307 93.1364 90.0211 93.0404 90.8378C92.9796 91.6582 92.9162 92.5005 92.8522 93.3645C92.7601 94.2272 92.7895 95.1168 92.7793 96.0262C92.7799 96.9357 92.7467 97.8682 92.8382 98.8173C92.9963 102.622 93.6574 106.756 94.979 111.029C96.298 115.297 98.3012 119.716 101.217 123.908C102.663 126.009 104.346 128.038 106.188 130.018C108.043 131.987 110.06 133.905 112.189 135.805C116.441 139.615 121.17 143.327 125.801 147.58C128.107 149.711 130.404 151.975 132.473 154.529C134.546 157.073 136.436 159.862 137.997 162.904C139.554 165.942 140.786 169.243 141.399 172.742C142.004 176.229 141.998 179.941 140.969 183.485C139.944 187.027 137.982 190.32 135.423 193.117C132.873 195.938 129.741 198.235 126.5 200.388C123.245 202.536 119.81 204.494 116.411 206.606C113.015 208.716 109.64 210.987 106.612 213.761C100.539 219.267 95.5108 226.272 92.2795 234.255C89.0052 242.21 87.635 251.166 88.5374 260.1C89.3867 269.032 92.4593 277.945 97.6267 285.699L97.4948 285.628C130.599 285.626 166.524 285.624 203.757 285.621C204.719 285.621 205.68 285.621 206.566 285.621L206.418 285.71C207.787 282.951 208.901 280.061 209.86 277.146C210.82 274.228 211.601 271.26 212.19 268.266C213.38 262.281 213.806 256.17 213.248 250.178C212.73 244.186 211.146 238.331 208.585 232.994C207.285 230.338 205.806 227.771 204.044 225.42C202.342 223.027 200.358 220.865 198.396 218.704C194.448 214.404 190.351 210.314 186.13 206.438C181.929 202.54 177.545 198.931 173.392 195.132C171.329 193.223 169.328 191.233 167.694 188.957C166.037 186.703 164.889 184.083 164.37 181.362C164.119 180.001 163.965 178.625 163.957 177.251C163.925 176.563 163.963 175.879 163.977 175.195C164.003 174.511 164.094 173.833 164.149 173.153C164.356 170.432 164.99 167.768 165.874 165.225C167.697 160.127 171.016 155.747 174.918 152.26C176.851 150.486 178.894 148.871 180.909 147.261C181.917 146.458 182.913 145.647 183.878 144.81C184.826 143.967 185.777 143.088 186.797 142.32C188.83 140.781 190.897 139.335 192.878 137.804C194.862 136.279 196.771 134.687 198.562 132.998C200.35 131.306 202.039 129.536 203.564 127.653C205.07 125.759 206.466 123.797 207.651 121.731C210.035 117.607 211.65 113.151 212.558 108.648C213.438 104.132 213.585 99.5815 213.256 95.1706C212.942 90.7507 212.048 86.4813 210.957 82.3814C209.896 78.2637 208.397 74.375 206.913 70.5965L207.022 70.6694C173.94 70.6451 147.182 70.6253 128.692 70.6119C119.444 70.5984 112.263 70.5882 107.392 70.5811C104.957 70.5747 103.1 70.5696 101.849 70.5664C100.6 70.5632 99.9556 70.553 99.9556 70.553Z" fill="#263238"/>
<path d="M202.67 100.181C218.735 102.822 193.405 131.274 179.069 142.501C170.767 149.002 161.852 156.052 157.909 165.831C153.436 176.926 156.751 189.396 154.584 200.557C154.224 202.41 151.485 202.119 151.512 200.231C151.619 192.906 151.424 185.584 150.21 178.371C148.488 168.142 144.556 158.022 137.386 150.525C131.534 144.406 123.861 140.34 117.618 134.619C108.504 126.267 99.1418 115.494 98.2285 103.166C98.2285 103.166 115.727 89.0704 125.441 90.8496C136.792 92.929 147.967 110.445 165.557 108.439C177.839 107.038 184.037 97.1191 202.67 100.181Z" fill="#00A0E2"/>
<path d="M204.097 252.467C203.691 248.45 202.619 243.904 199.054 242.009C196.894 240.86 194.264 240.988 191.899 241.61C189.533 242.233 187.311 243.308 184.966 244.005C180.352 245.375 175.298 245.215 170.78 243.555C166.422 241.954 162.68 239.06 158.633 236.785C154.586 234.51 149.848 232.814 145.343 233.935C137.573 235.868 133.53 245.222 125.848 247.481C122.434 248.484 118.768 247.921 115.297 247.134C111.826 246.348 108.342 245.338 104.786 245.472C102 245.576 99.1007 246.539 97.1474 248.449L97.1679 248.422C97.1481 248.442 97.1314 248.463 97.1116 248.483C96.7903 248.801 96.4953 249.145 96.2309 249.516C93.8482 252.692 93.4674 256.963 94.2002 260.841C95.0207 265.184 97.0495 269.198 99.2268 273.043C101.791 277.573 104.704 282.084 108.944 285.104C114.175 288.83 120.753 286.259 127.154 286.764C142.088 287.942 158.154 288.746 173.089 287.589C180.977 286.977 188.372 287.832 194.632 282.992C199.036 279.587 201.9 274.455 203.281 269.062C204.662 263.669 204.656 258.006 204.097 252.467Z" fill="#00A0E2"/>
<g opacity="0.24">
<path d="M175.913 244.772C175.07 246.063 174.711 247.793 175.523 249.103C176.336 250.414 177.435 251.605 177.788 253.107C178.341 255.464 176.922 257.77 175.863 259.949C173.97 263.846 173.108 268.291 173.747 272.577C174.386 276.862 176.584 280.956 180.014 283.603C181.53 284.774 183.501 285.681 185.329 285.108C187.05 284.569 188.163 282.822 188.505 281.052C188.846 279.281 188.564 277.457 188.339 275.667C187.296 267.362 187.51 258.9 188.971 250.658C189.216 249.28 189.449 247.707 188.576 246.613C188.018 245.915 187.129 245.587 186.281 245.304C182.952 244.196 179.36 245.427 175.913 244.772Z" fill="black"/>
</g>
<path d="M89.4914 290.74C89.4914 290.74 89.1912 285.734 95.7199 282.947H210.441C210.441 282.947 216.423 285.975 217.16 290.636L89.4914 290.74Z" fill="#263238"/>
<path d="M208.01 71.1627C207.951 71.1909 207.89 71.2191 207.829 71.2472L99.9559 70.5528C99.9559 70.5528 99.5732 70.3077 98.9991 69.8591C95.9259 67.4552 97.6507 62.5176 101.552 62.549L206.251 63.3944C210.573 63.4296 211.918 69.3163 208.01 71.1627Z" fill="#263238"/>
<g opacity="0.24">
<path d="M190.745 112.312C190.962 112.728 190.153 113.627 188.607 115C187.055 116.374 184.79 118.259 181.912 120.58C179.017 122.881 175.51 125.656 171.043 128.246C168.806 129.538 166.315 130.712 163.591 131.666C162.221 132.125 160.802 132.552 159.309 132.85C157.825 133.168 156.275 133.379 154.682 133.452C151.505 133.634 148.274 133.169 145.382 132.181C142.507 131.183 140.054 129.777 137.91 128.367C135.759 126.941 133.905 125.533 132.158 124.186C130.418 122.836 128.832 121.534 127.414 120.31C121.748 115.4 118.768 111.79 119.343 111.093C119.937 110.368 123.947 112.665 130.199 116.506C131.761 117.465 133.471 118.515 135.305 119.641C137.137 120.757 139.108 121.989 141.118 123.128C143.134 124.267 145.238 125.303 147.419 125.975C149.586 126.623 151.897 126.931 154.356 126.793C159.269 126.543 164.037 124.811 168.168 122.818C172.321 120.786 176.033 118.487 179.272 116.674C182.507 114.84 185.273 113.485 187.287 112.765C189.304 112.043 190.537 111.912 190.745 112.312Z" fill="black"/>
</g>
<path d="M151.593 213.928C152.777 213.512 154.192 214.703 153.983 215.941C153.775 217.178 152.047 217.84 151.065 217.057C150.083 216.275 150.341 214.444 151.501 213.964" fill="#00A0E2"/>
<path d="M113.009 130.164C113.001 130.172 112.87 130.04 112.628 129.78C112.369 129.496 112.021 129.115 111.583 128.635C111.142 128.127 110.56 127.539 109.967 126.788C109.364 126.038 108.681 125.189 107.929 124.253C107.234 123.27 106.444 122.21 105.65 121.035C105.273 120.434 104.883 119.814 104.481 119.174C104.283 118.852 104.069 118.534 103.878 118.196C103.692 117.854 103.504 117.508 103.314 117.157C101.739 114.384 100.337 111.137 99.34 107.589C98.3422 104.04 97.8744 100.53 97.8321 97.3362C97.8296 96.5381 97.8731 95.7599 97.891 95.0041C97.9089 94.6265 97.9019 94.2527 97.9397 93.8879C97.9787 93.5231 98.0171 93.1641 98.0549 92.8114C98.1355 92.1061 98.1918 91.4226 98.2865 90.7711C98.4037 90.1241 98.5163 89.502 98.6238 88.9074C98.8069 87.7138 99.1224 86.6661 99.3483 85.7362C99.4712 85.2735 99.5672 84.8383 99.6894 84.4466C99.8161 84.0594 99.9326 83.7042 100.038 83.381C100.245 82.7653 100.409 82.2751 100.531 81.9103C100.647 81.5756 100.713 81.4015 100.724 81.4053C100.735 81.4092 100.69 81.5903 100.595 81.9314C100.488 82.3001 100.344 82.7954 100.162 83.4181C100.065 83.7433 99.9589 84.1004 99.8424 84.4895C99.7297 84.8825 99.6427 85.3189 99.5288 85.7817C99.3208 86.7129 99.0225 87.7593 98.8555 88.9497C98.755 89.5417 98.6501 90.1618 98.5406 90.8063C98.4536 91.4546 98.4043 92.1349 98.3294 92.8364C98.2949 93.1871 98.2597 93.5442 98.2238 93.9065C98.1893 94.2693 98.1989 94.6399 98.1835 95.0149C98.1707 95.7657 98.1317 96.5381 98.1387 97.3305C98.1982 100.5 98.6712 103.977 99.6606 107.497C100.649 111.016 102.032 114.242 103.584 117.008C103.771 117.357 103.956 117.703 104.137 118.043C104.326 118.381 104.537 118.699 104.731 119.021C105.126 119.66 105.51 120.281 105.881 120.882C106.661 122.057 107.437 123.121 108.118 124.11C108.853 125.055 109.52 125.911 110.111 126.668C110.689 127.428 111.256 128.027 111.681 128.547C112.099 129.044 112.431 129.439 112.678 129.733C112.904 130.009 113.017 130.157 113.009 130.164Z" fill="#263238"/>
<path d="M106.935 225.244C106.93 225.241 106.971 225.17 107.055 225.033C107.149 224.884 107.275 224.685 107.435 224.432C107.609 224.163 107.819 223.839 108.065 223.458C108.19 223.266 108.325 223.058 108.468 222.838C108.626 222.627 108.81 222.414 108.996 222.182C109.375 221.72 109.795 221.207 110.252 220.648C110.745 220.118 111.309 219.568 111.901 218.963C113.117 217.788 114.586 216.534 116.295 215.266C119.692 212.691 124.075 210.132 128.826 207.147C131.183 205.629 133.665 204.031 136.011 202.084C138.36 200.153 140.625 197.927 142.459 195.271C146.075 189.895 147.544 183.666 147.672 178.1C147.818 172.49 146.625 167.494 145.219 163.511C143.796 159.515 142.164 156.472 140.979 154.42C140.387 153.392 139.899 152.608 139.565 152.081C139.406 151.827 139.282 151.627 139.188 151.478C139.105 151.341 139.064 151.269 139.069 151.266C139.073 151.263 139.123 151.328 139.216 151.459C139.316 151.605 139.45 151.798 139.62 152.045C139.974 152.561 140.479 153.334 141.091 154.355C142.312 156.391 143.982 159.426 145.441 163.433C146.882 167.424 148.109 172.449 147.979 178.107C147.955 179.518 147.841 180.962 147.626 182.424C147.423 183.887 147.114 185.367 146.689 186.844C145.866 189.804 144.545 192.743 142.735 195.458C140.877 198.151 138.586 200.397 136.217 202.338C133.85 204.295 131.357 205.894 128.989 207.407C124.221 210.384 119.836 212.916 116.435 215.456C114.724 216.708 113.251 217.943 112.03 219.099C111.435 219.695 110.867 220.235 110.37 220.757C109.906 221.307 109.482 221.81 109.098 222.265C108.909 222.493 108.721 222.701 108.561 222.909C108.413 223.126 108.275 223.328 108.146 223.518C107.891 223.89 107.672 224.208 107.492 224.471C107.321 224.716 107.186 224.909 107.084 225.054C106.99 225.181 106.939 225.247 106.935 225.244Z" fill="#263238"/>
<path d="M100.983 236.553C100.993 236.559 100.944 236.661 100.843 236.85C100.72 237.07 100.57 237.338 100.387 237.665C100.181 238.013 99.9369 238.444 99.6898 238.963C99.4377 239.48 99.1189 240.051 98.8489 240.723C98.7049 241.056 98.5545 241.403 98.3983 241.764C98.2441 242.127 98.118 242.518 97.9676 242.915C97.6546 243.705 97.4121 244.58 97.1356 245.493C96.6428 247.337 96.2313 249.399 96.0181 251.592C95.8287 253.789 95.8581 255.893 96.0073 257.795C96.1135 258.743 96.1922 259.648 96.3561 260.482C96.4316 260.9 96.4841 261.308 96.5698 261.692C96.6575 262.076 96.7426 262.444 96.8233 262.798C96.966 263.507 97.1759 264.127 97.3295 264.681C97.478 265.237 97.6399 265.704 97.7788 266.085C97.8991 266.438 97.9977 266.73 98.0789 266.968C98.1442 267.172 98.173 267.281 98.1628 267.286C98.1519 267.29 98.102 267.19 98.0169 266.994C97.9202 266.761 97.8012 266.476 97.6578 266.13C97.4991 265.755 97.3186 265.292 97.1522 264.738C96.9801 264.186 96.7535 263.567 96.5948 262.856C96.5065 262.501 96.4143 262.131 96.3183 261.747C96.2249 261.361 96.1653 260.951 96.0834 260.531C95.9068 259.692 95.8159 258.781 95.7007 257.824C95.533 255.905 95.494 253.781 95.6853 251.563C95.9004 249.349 96.3253 247.267 96.8393 245.411C97.1266 244.491 97.3813 243.612 97.7077 242.819C97.8645 242.421 97.9977 242.028 98.1596 241.665C98.3241 241.305 98.4815 240.958 98.6332 240.625C98.9186 239.955 99.2546 239.387 99.5241 238.876C99.7884 238.362 100.05 237.939 100.275 237.599C100.479 237.285 100.648 237.027 100.786 236.815C100.906 236.637 100.973 236.547 100.983 236.553Z" fill="#263238"/>
<path d="M180.11 251.934C180.113 251.939 180.069 251.971 179.98 252.029C179.873 252.096 179.743 252.178 179.581 252.279C179.203 252.506 178.684 252.818 178.028 253.212C177.687 253.414 177.311 253.637 176.901 253.879C176.482 254.11 176.01 254.33 175.511 254.582C174.504 255.068 173.387 255.686 172.068 256.185C171.416 256.452 170.734 256.732 170.023 257.024C169.31 257.31 168.54 257.53 167.757 257.801C166.2 258.37 164.475 258.775 162.673 259.246C159.038 260.055 154.972 260.647 150.671 260.785C146.367 260.872 142.274 260.492 138.602 259.874C136.777 259.499 135.034 259.184 133.448 258.697C132.652 258.468 131.871 258.287 131.144 258.039C130.419 257.785 129.724 257.541 129.058 257.308C127.715 256.879 126.566 256.32 125.536 255.888C125.025 255.662 124.542 255.466 124.111 255.258C123.69 255.037 123.302 254.834 122.951 254.65C122.275 254.29 121.741 254.007 121.352 253.799C121.185 253.707 121.05 253.632 120.94 253.571C120.849 253.518 120.803 253.488 120.806 253.483C120.808 253.478 120.86 253.498 120.957 253.541C121.071 253.594 121.211 253.66 121.384 253.74C121.779 253.934 122.322 254.199 123.009 254.534C123.363 254.709 123.753 254.903 124.179 255.114C124.612 255.314 125.097 255.499 125.61 255.716C126.645 256.131 127.795 256.673 129.137 257.085C129.802 257.311 130.497 257.546 131.221 257.792C131.948 258.033 132.726 258.206 133.519 258.429C135.101 258.903 136.838 259.205 138.654 259.571C142.31 260.169 146.382 260.537 150.661 260.451C154.938 260.314 158.983 259.733 162.603 258.945C164.397 258.485 166.117 258.092 167.67 257.537C168.451 257.273 169.22 257.059 169.932 256.781C170.643 256.498 171.324 256.226 171.976 255.966C173.295 255.484 174.416 254.883 175.427 254.414C175.928 254.17 176.403 253.96 176.826 253.738C177.24 253.505 177.619 253.291 177.964 253.097C178.632 252.727 179.16 252.434 179.545 252.22C179.713 252.13 179.85 252.058 179.961 251.998C180.057 251.952 180.107 251.929 180.11 251.934Z" fill="#263238"/>
<path d="M186.786 116.485C186.789 116.489 186.743 116.532 186.649 116.611C186.541 116.701 186.402 116.815 186.229 116.957C185.837 117.27 185.291 117.707 184.596 118.261C183.172 119.387 181.113 121.02 178.512 122.965C175.905 124.899 172.747 127.152 168.992 129.258C167.097 130.27 165.078 131.305 162.86 132.08C160.649 132.859 158.273 133.457 155.783 133.653C150.783 133.992 146.043 132.725 142.187 130.825C140.258 129.859 138.519 128.776 136.935 127.702C135.372 126.599 133.946 125.532 132.684 124.51C130.15 122.476 128.165 120.755 126.786 119.576C126.113 118.995 125.584 118.537 125.204 118.209C125.037 118.06 124.904 117.941 124.798 117.847C124.708 117.764 124.663 117.72 124.667 117.715C124.671 117.711 124.723 117.747 124.82 117.821C124.932 117.909 125.072 118.019 125.248 118.158C125.637 118.475 126.18 118.915 126.869 119.477C128.274 120.626 130.283 122.32 132.83 124.325C134.1 125.335 135.53 126.386 137.092 127.474C138.674 128.533 140.408 129.6 142.322 130.549C146.149 132.415 150.831 133.653 155.76 133.321C158.212 133.127 160.56 132.54 162.75 131.772C164.948 131.01 166.957 129.988 168.845 128.988C172.588 126.908 175.752 124.682 178.373 122.775C180.988 120.857 183.069 119.253 184.517 118.158C185.228 117.625 185.787 117.205 186.189 116.904C186.37 116.773 186.515 116.667 186.629 116.585C186.729 116.514 186.782 116.48 186.786 116.485Z" fill="#263238"/>
<g opacity="0.24">
<path d="M129.065 257.31C132.098 254.969 136.359 255.537 140.109 256.325C143.858 257.113 147.635 258.395 151.43 257.864C154.289 257.464 156.912 256.057 159.735 255.445C162.557 254.834 165.981 255.286 167.545 257.713C155.129 261.749 141.394 261.606 129.065 257.31Z" fill="black"/>
</g>
<path d="M234.901 239.943L221.118 224.51L220.978 243.269L225.127 255.302L183.897 262.453L182.149 229.922L179.18 204.939C178.817 201.877 180.563 198.956 183.431 197.826L194.778 193.358L210.759 196.29L217.187 198.734C219.886 199.76 222.292 201.433 224.193 203.607L243.545 225.737" fill="#00A0E2"/>
<path d="M220.151 220.819C220.155 220.753 221.058 220.887 222.48 220.655C223.886 220.436 225.831 219.748 227.444 218.264C229.054 216.776 229.897 214.893 230.229 213.508C230.575 212.111 230.516 211.199 230.581 211.201C230.601 211.201 230.633 211.425 230.639 211.835C230.646 212.244 230.606 212.84 230.459 213.561C230.178 214.993 229.342 216.962 227.669 218.509C225.994 220.051 223.963 220.725 222.514 220.889C221.783 220.977 221.186 220.969 220.778 220.929C220.37 220.889 220.149 220.839 220.151 220.819Z" fill="white"/>
<path d="M221.357 242.47C221.454 242.47 221.478 235.97 221.413 227.956C221.347 219.94 221.216 213.443 221.12 213.444C221.023 213.445 220.999 219.943 221.064 227.96C221.129 235.974 221.26 242.471 221.357 242.47Z" fill="#263238"/>
<path d="M219.847 247.239L194.934 237.21C192.925 236.401 191.549 234.522 191.384 232.363L189.561 208.478C189.561 208.478 189.776 198.32 183.431 197.825L179.822 199.247C175.157 201.724 174.001 208.516 174.636 213.761C175.538 221.212 175.914 231.757 176.924 238.224C177.75 243.514 180.78 248.168 185.957 249.53L216.642 256.173L219.847 247.239Z" fill="#00A0E2"/>
<path d="M189.919 212.122C189.93 212.121 189.957 212.31 189.997 212.669C190.037 213.058 190.09 213.583 190.157 214.243C190.285 215.643 190.464 217.614 190.684 220.036C190.895 222.492 191.145 225.401 191.423 228.63C191.49 229.439 191.56 230.267 191.631 231.114C191.705 231.961 191.757 232.828 191.949 233.67C192.132 234.514 192.537 235.305 193.188 235.908C193.834 236.512 194.642 236.955 195.487 237.338C202.356 240.311 208.687 242.765 213.283 244.486C215.565 245.327 217.421 246.011 218.739 246.496C219.361 246.726 219.856 246.908 220.223 247.044C220.561 247.172 220.737 247.244 220.733 247.256C220.729 247.266 220.546 247.215 220.201 247.108C219.829 246.987 219.327 246.824 218.696 246.619C217.393 246.187 215.513 245.54 213.202 244.708C208.579 243.041 202.238 240.624 195.348 237.642C194.492 237.252 193.65 236.796 192.96 236.15C192.264 235.507 191.817 234.626 191.632 233.744C191.433 232.861 191.386 231.987 191.314 231.143C191.247 230.296 191.181 229.467 191.117 228.657C190.866 225.426 190.64 222.514 190.449 220.056C190.273 217.63 190.13 215.656 190.028 214.254C189.987 213.592 189.954 213.066 189.93 212.676C189.911 212.313 189.907 212.123 189.919 212.122Z" fill="#263238"/>
<path d="M175.645 225.106C175.656 225.106 175.672 225.217 175.694 225.427C175.716 225.676 175.743 225.981 175.777 226.349C175.851 227.201 175.951 228.346 176.072 229.739C176.209 231.168 176.382 232.87 176.63 234.75C176.886 236.627 177.189 238.698 177.755 240.801C178.024 241.862 178.401 242.843 178.971 243.685C179.542 244.534 180.177 245.297 180.833 245.972C182.15 247.319 183.556 248.306 184.819 248.962C187.368 250.287 189.221 250.306 189.195 250.395C189.194 250.406 189.083 250.403 188.871 250.387C188.659 250.372 188.346 250.348 187.949 250.268C187.155 250.128 186.013 249.816 184.713 249.172C183.415 248.532 181.969 247.547 180.614 246.187C179.94 245.505 179.289 244.732 178.701 243.867C178.106 243 177.701 241.951 177.435 240.889C176.86 238.754 176.568 236.676 176.326 234.789C176.094 232.9 175.944 231.193 175.838 229.758C175.733 228.323 175.677 227.16 175.648 226.356C175.64 225.986 175.633 225.681 175.628 225.43C175.627 225.218 175.633 225.106 175.645 225.106Z" fill="#263238"/>
<path d="M186.298 241.82C186.264 241.811 186.37 241.278 186.752 240.493C187.129 239.71 187.827 238.696 188.843 237.825C189.863 236.957 190.973 236.426 191.806 236.176C192.642 235.922 193.184 235.901 193.189 235.936C193.199 235.992 192.676 236.095 191.884 236.399C191.092 236.699 190.043 237.242 189.06 238.078C188.081 238.918 187.38 239.869 186.96 240.604C186.536 241.338 186.352 241.839 186.298 241.82Z" fill="#263238"/>
<path d="M191.198 223.656C191.201 223.65 191.255 223.675 191.356 223.725C191.474 223.787 191.621 223.864 191.802 223.959C192.202 224.147 192.785 224.443 193.58 224.713C195.146 225.257 197.6 225.81 200.562 225.309C203.486 224.831 206.887 223.108 209.242 219.917C210.407 218.341 211.31 216.4 211.514 214.273C211.617 213.216 211.531 212.115 211.182 211.079C210.84 210.045 210.215 209.086 209.386 208.335C208.561 207.581 207.537 207.051 206.462 206.914C205.402 206.746 204.266 207.026 203.53 207.737C203.175 208.094 202.954 208.571 202.959 209.063C202.958 209.554 203.146 210.038 203.44 210.432C204.03 211.238 205.024 211.613 205.975 211.754C207.916 212.02 209.823 211.669 211.42 210.975C213.024 210.275 214.335 209.236 215.279 208.089C216.225 206.937 216.808 205.691 217.156 204.562C217.506 203.428 217.613 202.399 217.63 201.565C217.643 200.728 217.555 200.08 217.49 199.643C217.453 199.441 217.423 199.279 217.399 199.148C217.379 199.036 217.372 198.978 217.378 198.977C217.378 198.977 217.731 199.864 217.76 201.565C217.763 202.41 217.674 203.456 217.335 204.615C216.998 205.77 216.419 207.048 215.463 208.238C214.507 209.423 213.173 210.5 211.532 211.228C209.896 211.951 207.944 212.326 205.93 212.058C204.94 211.915 203.855 211.526 203.185 210.623C202.857 210.185 202.638 209.64 202.637 209.063C202.629 208.484 202.893 207.915 203.3 207.507C204.135 206.699 205.369 206.411 206.507 206.586C207.659 206.732 208.744 207.297 209.611 208.088C210.483 208.879 211.138 209.884 211.498 210.974C211.863 212.062 211.95 213.208 211.841 214.303C211.623 216.506 210.688 218.492 209.49 220.099C207.068 223.352 203.585 225.084 200.602 225.542C197.584 226.02 195.104 225.421 193.537 224.834C191.952 224.23 191.198 223.656 191.198 223.656Z" fill="white"/>
<path d="M174.879 217.284C174.864 217.27 175.003 217.084 175.288 216.774C175.575 216.467 176.02 216.045 176.634 215.604C177.843 214.694 179.845 213.867 182.145 213.65C183.294 213.528 184.41 213.583 185.393 213.787C186.377 213.991 187.224 214.322 187.896 214.666C188.569 215.008 189.079 215.345 189.418 215.593C189.756 215.842 189.93 215.997 189.918 216.014C189.883 216.066 189.138 215.503 187.794 214.879C186.465 214.243 184.43 213.712 182.18 213.983C179.927 214.197 177.984 214.96 176.768 215.798C175.535 216.619 174.925 217.331 174.879 217.284Z" fill="white"/>
<path d="M178.863 200.206C178.915 200.15 179.503 200.965 180.88 201.672C181.56 202.025 182.44 202.321 183.446 202.424C184.449 202.531 185.583 202.416 186.66 201.981C187.73 201.528 188.613 200.808 189.248 200.023C189.887 199.239 190.3 198.408 190.532 197.677C191.007 196.204 190.847 195.212 190.923 195.215C190.941 195.213 190.991 195.452 191.007 195.894C191.025 196.335 190.972 196.981 190.758 197.746C190.547 198.511 190.142 199.386 189.488 200.216C188.839 201.045 187.919 201.811 186.788 202.289C185.65 202.749 184.458 202.857 183.413 202.73C182.365 202.604 181.459 202.271 180.769 201.88C180.077 201.489 179.583 201.069 179.284 200.745C178.984 200.422 178.849 200.217 178.863 200.206Z" fill="white"/>
<path d="M200.573 239.481C200.561 239.48 200.579 239.318 200.625 239.009C200.695 238.708 200.794 238.251 201.066 237.72C201.569 236.647 202.82 235.303 204.795 234.483C206.743 233.608 209.421 233.439 212.12 234.221C213.437 234.613 214.948 235.096 215.937 236.383C216.42 237.015 216.586 237.957 216.218 238.725C215.865 239.497 215.171 240.029 214.442 240.4C213.699 240.763 212.893 240.969 212.084 240.985C211.282 241 210.445 240.801 209.819 240.283C209.188 239.772 208.855 238.983 208.806 238.23C208.747 237.471 208.902 236.738 209.145 236.072C210.207 233.407 212.354 231.713 214.28 230.875C216.237 230.018 218.01 229.928 219.18 230.033C220.36 230.155 220.971 230.41 220.971 230.41C220.961 230.454 220.337 230.242 219.17 230.162C218.014 230.098 216.279 230.224 214.377 231.09C213.433 231.521 212.459 232.14 211.581 232.987C210.708 233.83 209.922 234.911 209.434 236.178C209.205 236.814 209.066 237.51 209.124 238.205C209.174 238.897 209.472 239.584 210.027 240.032C210.577 240.486 211.33 240.671 212.079 240.655C212.833 240.641 213.598 240.445 214.295 240.105C214.981 239.757 215.615 239.257 215.917 238.591C216.231 237.929 216.099 237.144 215.674 236.575C215.252 235.994 214.635 235.575 214.007 235.252C213.374 234.932 212.696 234.715 212.038 234.519C209.395 233.739 206.799 233.879 204.888 234.704C202.948 235.478 201.71 236.754 201.183 237.783C200.636 238.813 200.62 239.494 200.573 239.481Z" fill="white"/>
<path d="M183.986 248.475C183.976 248.412 184.936 248.331 186.376 247.818C187.806 247.317 189.712 246.29 191.273 244.564C192.833 242.838 193.663 240.837 194.018 239.364C194.383 237.88 194.367 236.918 194.431 236.921C194.451 236.921 194.474 237.16 194.466 237.593C194.46 238.026 194.404 238.654 194.248 239.416C193.945 240.932 193.128 243.009 191.52 244.788C189.912 246.566 187.928 247.588 186.45 248.041C185.708 248.273 185.088 248.392 184.658 248.442C184.228 248.494 183.988 248.495 183.986 248.475Z" fill="white"/>
<path d="M175.913 229.908C175.91 229.897 176.013 229.855 176.214 229.788C176.415 229.722 176.713 229.629 177.104 229.531C177.881 229.343 179.041 229.085 180.497 229.186C181.221 229.243 182.015 229.408 182.804 229.756C183.589 230.104 184.374 230.65 184.956 231.445C185.527 232.239 185.878 233.272 185.793 234.349C185.753 234.886 185.589 235.426 185.299 235.908C185.007 236.382 184.569 236.813 183.993 237C183.425 237.178 182.759 237.087 182.31 236.667C181.867 236.238 181.756 235.637 181.729 235.114C181.689 234.052 181.919 233.034 182.316 232.15C183.109 230.364 184.583 229.191 185.95 228.703C187.326 228.193 188.547 228.231 189.338 228.367C189.737 228.437 190.039 228.525 190.239 228.596C190.438 228.671 190.54 228.715 190.536 228.726C190.526 228.758 190.108 228.593 189.319 228.495C188.538 228.401 187.352 228.403 186.035 228.922C184.727 229.422 183.341 230.56 182.597 232.275C182.224 233.121 182.014 234.095 182.055 235.098C182.08 235.587 182.195 236.101 182.538 236.426C182.875 236.746 183.424 236.83 183.892 236.682C184.366 236.529 184.753 236.159 185.016 235.734C185.276 235.302 185.429 234.814 185.467 234.322C185.55 233.335 185.232 232.367 184.706 231.624C184.171 230.879 183.435 230.35 182.689 230.007C181.939 229.663 181.177 229.49 180.476 229.42C179.064 229.291 177.911 229.507 177.132 229.656C176.349 229.818 175.92 229.933 175.913 229.908Z" fill="white"/>
<g opacity="0.3">
<path d="M212.687 244.392C210.024 242.887 207.417 241.731 204.632 240.466C201.846 239.2 199.118 237.575 197.295 235.118C193.857 230.483 194.249 223.795 190.729 219.223C190.959 222.298 191.189 225.372 191.419 228.448C191.629 231.266 191.197 234.053 193.013 235.968C194.542 237.581 197.524 238.818 199.635 239.514C203.877 240.914 208.445 242.993 212.687 244.392Z" fill="black"/>
</g>
<path d="M255.976 279.496C255.976 279.496 276.821 285.265 277.657 285.559C278.913 286.002 278.702 290.602 276.748 290.53C275.823 290.496 260.737 291.092 258.831 290.973C256.924 290.854 251.174 288.588 251.174 288.588L255.976 279.496Z" fill="#00A0E2"/>
<path d="M264.659 287.45C264.764 287.464 264.905 286.362 265.577 285.212C266.234 284.052 267.116 283.377 267.051 283.293C267.015 283.213 265.979 283.8 265.275 285.038C264.559 286.268 264.571 287.459 264.659 287.45Z" fill="#263238"/>
<path d="M262.486 286.464C262.589 286.482 262.799 285.496 263.355 284.408C263.899 283.313 264.565 282.557 264.49 282.485C264.433 282.417 263.618 283.098 263.043 284.251C262.459 285.398 262.397 286.458 262.486 286.464Z" fill="#263238"/>
<path d="M260.447 285.919C260.552 285.913 260.472 284.871 260.935 283.717C261.378 282.554 262.143 281.843 262.07 281.767C262.029 281.688 261.094 282.332 260.61 283.59C260.113 284.841 260.363 285.949 260.447 285.919Z" fill="#263238"/>
<path d="M260.817 283.226C260.854 283.236 261.039 282.653 261.04 281.675C261.039 281.188 260.983 280.605 260.829 279.976C260.753 279.661 260.65 279.336 260.519 279.008C260.452 278.843 260.374 278.652 260.185 278.497C259.99 278.322 259.636 278.359 259.469 278.532C259.278 278.699 259.218 278.934 259.191 279.122C259.17 279.313 259.16 279.492 259.164 279.672C259.169 280.031 259.215 280.375 259.293 280.692C259.447 281.329 259.695 281.863 259.934 282.286C260.42 283.132 260.841 283.564 260.87 283.541C260.917 283.508 260.569 283.022 260.153 282.172C259.948 281.747 259.734 281.225 259.606 280.623C259.542 280.322 259.506 280.001 259.506 279.67C259.515 279.35 259.51 278.95 259.698 278.795C259.797 278.713 259.886 278.708 259.973 278.772C260.066 278.843 260.142 278.985 260.202 279.137C260.331 279.448 260.436 279.757 260.517 280.056C260.681 280.655 260.761 281.213 260.793 281.684C260.855 282.628 260.761 283.218 260.817 283.226Z" fill="#263238"/>
<path d="M260.791 283.014C260.801 282.976 260.298 282.803 259.447 282.797C259.023 282.796 258.515 282.84 257.968 282.978C257.698 283.051 257.408 283.121 257.116 283.292C256.83 283.436 256.531 283.833 256.645 284.244C256.734 284.632 257.066 284.903 257.395 284.988C257.728 285.081 258.049 285.048 258.33 284.986C258.903 284.854 259.347 284.573 259.685 284.32C260.353 283.796 260.679 283.395 260.654 283.366C260.617 283.322 260.222 283.665 259.543 284.118C259.202 284.336 258.774 284.572 258.265 284.671C258.011 284.72 257.738 284.735 257.491 284.661C257.246 284.593 257.042 284.406 256.984 284.165C256.924 283.932 257.065 283.719 257.294 283.583C257.517 283.445 257.794 283.365 258.05 283.288C258.566 283.141 259.048 283.073 259.455 283.043C260.271 282.986 260.782 283.07 260.791 283.014Z" fill="#263238"/>
<path d="M267.863 287.674C267.966 287.663 267.864 286.771 268.274 285.794C268.664 284.808 269.36 284.242 269.295 284.162C269.26 284.077 268.388 284.571 267.951 285.662C267.501 286.748 267.779 287.711 267.863 287.674Z" fill="#263238"/>
<path d="M253.318 288.635C253.309 288.658 253.595 288.791 254.124 289.015C254.66 289.217 255.443 289.501 256.443 289.734C258.437 290.236 261.279 290.521 264.402 290.488C267.526 290.453 270.34 290.311 272.382 290.229C273.348 290.178 274.158 290.135 274.797 290.101C275.368 290.063 275.682 290.031 275.682 290.006C275.681 289.982 275.365 289.969 274.793 289.965C274.153 289.97 273.343 289.976 272.375 289.983C270.264 290.024 267.48 290.079 264.4 290.139C261.292 290.171 258.484 289.928 256.498 289.493C254.505 289.083 253.342 288.571 253.318 288.635Z" fill="#263238"/>
<path d="M252.702 289.11C252.73 289.158 253.3 288.825 254.263 288.403C255.215 287.995 256.642 287.505 258.208 287.747C259.778 287.988 260.892 289.042 261.617 289.775C262.348 290.534 262.776 291.038 262.818 291.002C262.85 290.976 262.494 290.422 261.798 289.607C261.446 289.205 261 288.738 260.416 288.315C259.838 287.891 259.095 287.53 258.262 287.403C256.582 287.145 255.101 287.707 254.159 288.179C253.203 288.669 252.681 289.076 252.702 289.11Z" fill="#263238"/>
<path d="M233.85 273.741C233.85 273.741 214.125 286.656 213.418 287.19C212.355 287.993 213.574 291.815 215.414 291.153C216.284 290.84 232.836 286.236 234.616 285.543C236.396 284.851 241.187 280.945 241.187 280.945L233.85 273.741Z" fill="#00A0E2"/>
<path d="M227.993 283.957C228.079 283.938 227.729 282.8 226.673 281.845C225.626 280.88 224.461 280.635 224.451 280.723C224.415 280.822 225.46 281.197 226.438 282.103C227.428 282.995 227.898 284.002 227.993 283.957Z" fill="#263238"/>
<path d="M229.763 282.357C229.846 282.325 229.465 281.334 228.561 280.417C227.663 279.494 226.68 279.092 226.646 279.175C226.596 279.265 227.46 279.784 228.311 280.661C229.171 281.53 229.672 282.405 229.763 282.357Z" fill="#263238"/>
<path d="M231.54 281.218C231.63 281.221 231.531 280.09 230.678 279.049C229.835 277.998 228.749 277.668 228.733 277.756C228.687 277.851 229.632 278.295 230.407 279.268C231.198 280.228 231.438 281.244 231.54 281.218Z" fill="#263238"/>
<path d="M230.37 278.765C230.422 278.74 230.152 278.206 229.924 277.289C229.812 276.83 229.718 276.275 229.692 275.654C229.679 275.344 229.685 275.018 229.714 274.682C229.725 274.52 229.755 274.361 229.821 274.265C229.884 274.177 229.97 274.155 230.091 274.204C230.316 274.294 230.433 274.677 230.539 274.979C230.64 275.294 230.702 275.611 230.733 275.917C230.793 276.529 230.749 277.092 230.683 277.559C230.544 278.495 230.359 279.064 230.415 279.081C230.45 279.095 230.719 278.555 230.926 277.601C231.025 277.126 231.1 276.541 231.053 275.888C231.03 275.562 230.97 275.22 230.866 274.877C230.815 274.703 230.751 274.536 230.672 274.36C230.59 274.189 230.462 273.983 230.229 273.883C230.016 273.768 229.668 273.841 229.536 274.066C229.403 274.272 229.387 274.477 229.373 274.654C229.348 275.006 229.349 275.348 229.371 275.671C229.416 276.317 229.54 276.89 229.686 277.355C229.985 278.287 230.338 278.785 230.37 278.765Z" fill="#263238"/>
<path d="M230.331 278.555C230.356 278.606 230.818 278.371 231.613 278.178C232.009 278.083 232.49 278.001 233.026 277.985C233.293 277.98 233.581 277.972 233.836 278.036C234.095 278.096 234.294 278.256 234.308 278.496C234.325 278.743 234.187 278.984 233.974 279.122C233.762 279.268 233.498 279.337 233.241 279.367C232.726 279.427 232.246 279.333 231.855 279.228C231.07 279.003 230.59 278.796 230.568 278.85C230.554 278.885 230.986 279.168 231.782 279.465C232.18 279.603 232.689 279.736 233.274 279.688C233.562 279.662 233.878 279.595 234.166 279.406C234.454 279.225 234.688 278.866 234.655 278.469C234.639 278.043 234.234 277.756 233.917 277.705C233.587 277.63 233.29 277.651 233.01 277.664C232.447 277.699 231.949 277.811 231.546 277.941C230.737 278.204 230.31 278.522 230.331 278.555Z" fill="#263238"/>
<path d="M217.927 290.433C217.95 290.463 218.259 290.233 218.41 289.669C218.575 289.118 218.471 288.27 218.04 287.528C217.834 287.153 217.598 286.829 217.379 286.543C217.164 286.256 216.94 285.997 216.71 285.824C216.482 285.646 216.243 285.566 216.079 285.56C215.914 285.553 215.831 285.594 215.833 285.614C215.834 285.669 216.186 285.642 216.551 286.013C216.735 286.189 216.92 286.437 217.119 286.732C217.322 287.025 217.542 287.345 217.735 287.695C218.134 288.391 218.253 289.11 218.168 289.619C218.097 290.129 217.881 290.399 217.927 290.433Z" fill="#263238"/>
<path d="M225.008 285.142C225.1 285.152 225.072 284.15 224.314 283.252C223.566 282.345 222.585 282.14 222.578 282.231C222.541 282.327 223.375 282.655 224.047 283.475C224.734 284.282 224.907 285.162 225.008 285.142Z" fill="#263238"/>
<path d="M239.159 281.641C239.142 281.62 238.839 281.843 238.292 282.236C237.737 282.62 236.922 283.158 235.86 283.726C234.798 284.296 233.489 284.887 231.997 285.446C230.503 286.003 228.828 286.528 227.056 287.041C223.508 288.063 220.295 288.997 217.977 289.694C216.866 290.035 215.943 290.319 215.236 290.536C214.591 290.742 214.238 290.867 214.244 290.89C214.251 290.913 214.617 290.833 215.273 290.666C215.988 290.477 216.921 290.23 218.045 289.932C220.381 289.295 223.601 288.399 227.154 287.376C228.928 286.861 230.611 286.324 232.11 285.746C233.609 285.166 234.922 284.545 235.979 283.942C237.037 283.34 237.839 282.765 238.372 282.344C238.9 281.915 239.172 281.657 239.159 281.641Z" fill="#263238"/>
<path d="M239.89 281.907C239.901 281.868 239.279 281.639 238.219 281.463C237.177 281.299 235.596 281.214 234.073 281.969C233.319 282.343 232.72 282.913 232.299 283.493C231.871 284.073 231.587 284.653 231.374 285.144C230.958 286.131 230.788 286.767 230.825 286.782C230.877 286.803 231.131 286.193 231.597 285.248C232.066 284.33 232.806 282.986 234.23 282.28C235.648 281.574 237.156 281.607 238.187 281.707C239.233 281.817 239.878 281.962 239.89 281.907Z" fill="#263238"/>
<path d="M274.842 242.244C274.842 242.244 280.759 244.357 280.783 250.993C280.831 263.702 255.103 277.711 255.103 277.711L220.867 255.026L218.721 254.158C218.721 254.158 264.938 236.797 274.842 242.244Z" fill="#263238"/>
<path d="M238.21 266.484C238.224 266.503 238.541 266.287 239.101 265.879C239.662 265.473 240.463 264.869 241.443 264.111C243.403 262.596 246.07 260.448 248.939 257.986C251.808 255.522 254.334 253.21 256.128 251.501C257.026 250.647 257.743 249.947 258.23 249.454C258.718 248.962 258.979 248.681 258.963 248.664C258.946 248.647 258.653 248.894 258.137 249.355C257.577 249.86 256.844 250.522 255.961 251.32C254.125 252.981 251.577 255.26 248.712 257.721C245.847 260.18 243.209 262.355 241.289 263.918C240.366 264.671 239.602 265.295 239.018 265.772C238.483 266.213 238.195 266.465 238.21 266.484Z" fill="#455A64"/>
<path d="M265.177 246.995C265.189 246.91 263.662 246.76 261.877 247.295C260.088 247.816 258.887 248.77 258.944 248.835C259.001 248.926 260.249 248.13 261.977 247.63C263.698 247.112 265.178 247.102 265.177 246.995Z" fill="#455A64"/>
<path d="M262.227 244.991C262.197 244.909 261.099 245.391 260.198 246.518C259.286 247.637 259.045 248.811 259.133 248.824C259.233 248.858 259.607 247.792 260.47 246.737C261.318 245.672 262.282 245.082 262.227 244.991Z" fill="#455A64"/>
<path d="M276.723 285.235C276.741 285.195 276.315 285.113 275.841 285.502C275.375 285.875 274.979 286.62 274.851 287.49C274.723 288.365 274.917 289.17 275.164 289.681C275.406 290.201 275.673 290.445 275.703 290.421C275.749 290.388 275.562 290.099 275.393 289.589C275.219 289.085 275.079 288.342 275.197 287.539C275.314 286.74 275.642 286.05 276.007 285.685C276.369 285.305 276.73 285.29 276.723 285.235Z" fill="#263238"/>
<path d="M266.966 221.481L254.772 252.392L202.268 253.247L201.296 250.407L219.697 249.739L228.54 222.319L266.966 221.481Z" fill="#455A64"/>
<path d="M242.446 234.863C243.12 234.407 244.365 234.59 244.971 235.133C245.577 235.676 245.773 236.616 245.465 237.369C245.157 238.123 244.381 238.651 243.568 238.694C242.705 238.74 241.804 238.2 241.563 237.37C241.322 236.54 241.59 235.301 242.446 234.863Z" fill="#EBEBEB"/>
<path d="M258.345 279.256C258.345 279.256 209.973 247.527 207.992 246.867C206.011 246.206 201.224 243.07 196.438 244.39C191.651 245.711 187.359 250.003 185.214 256.275C183.988 259.858 183.408 265.972 183.137 270.557C182.812 276.039 184.51 281.505 188.095 285.665C189.727 287.557 191.74 289.204 194.127 289.947C194.631 290.104 195.153 290.239 195.69 290.355C204.836 292.338 214.235 288.232 219.374 280.412L220.502 278.694C220.502 278.694 252.145 290.319 252.641 290.154L258.345 279.256Z" fill="#263238"/>
<path d="M198.501 270.523C198.501 270.523 198.589 270.568 198.767 270.64C198.958 270.716 199.22 270.82 199.558 270.954C200.272 271.229 201.302 271.625 202.625 272.135C205.316 273.149 209.197 274.61 214.022 276.428C218.863 278.234 224.662 280.381 231.168 282.749C237.675 285.114 244.886 287.711 252.586 290.318L252.726 290.365L252.795 290.234C254.004 287.925 255.279 285.489 256.574 283.017C257.234 281.756 257.889 280.505 258.5 279.336L258.575 279.194L258.441 279.109C243.915 269.889 230.921 261.639 221.542 255.686C216.859 252.732 213.081 250.349 210.459 248.694C209.16 247.884 208.149 247.253 207.449 246.816C207.113 246.61 206.852 246.451 206.663 246.335C206.485 246.228 206.39 246.182 206.39 246.182C206.39 246.182 206.473 246.248 206.645 246.365C206.83 246.487 207.085 246.656 207.413 246.873C208.105 247.323 209.106 247.972 210.39 248.806C212.998 250.481 216.757 252.896 221.415 255.888C230.777 261.864 243.751 270.145 258.252 279.401L258.193 279.175C257.581 280.343 256.926 281.595 256.265 282.855C254.972 285.327 253.697 287.764 252.489 290.073L252.697 289.99C245 287.389 237.786 284.806 231.273 282.459C224.771 280.093 218.962 277.979 214.103 276.21C209.263 274.434 205.369 273.007 202.67 272.017C201.337 271.532 200.301 271.154 199.582 270.893C199.24 270.772 198.973 270.678 198.779 270.609C198.596 270.546 198.501 270.523 198.501 270.523Z" fill="#455A64"/>
<path d="M203.521 157.848C204.346 155.618 206.169 154.649 208.479 154.09C210.79 153.531 213.361 154.193 215.114 155.799C216.286 156.873 217.146 158.357 218.593 159.014C220.978 160.095 224.033 158.515 226.293 159.836C227.631 160.618 228.288 162.398 227.779 163.862C227.269 165.325 225.65 166.313 224.115 166.096C225.669 166.83 225.959 169.168 224.889 170.513C223.819 171.858 221.841 172.222 220.188 171.754C218.534 171.286 217.161 170.132 215.993 168.872C214.825 167.612 213.802 166.214 212.538 165.05C211.274 163.887 209.696 162.95 207.979 162.886C205.655 162.799 203.51 164.361 202.289 166.342C201.069 168.322 200.614 170.67 200.274 172.971C199.934 175.272 199.678 177.62 198.79 179.77C198.686 180.022 198.536 180.303 198.27 180.358C197.884 180.439 197.601 180.011 197.446 179.648C195.697 175.551 194.765 171.108 194.718 166.653C194.69 164.066 194.98 161.645 196.586 159.616C198.193 157.588 201.898 156.326 203.521 157.848Z" fill="#263238"/>
<path d="M198.066 168.173L194.51 194.014C193.905 198.408 197.101 202.415 201.52 202.802C205.643 203.163 209.325 200.22 209.885 196.118C210.151 194.172 210.377 192.55 210.417 192.352C210.417 192.352 217.081 192.639 218.452 186.193C219.114 183.078 219.956 176.551 220.65 170.637C221.395 164.287 217.13 158.431 210.859 157.178L210.236 157.053C203.434 156.103 198.827 161.348 198.066 168.173Z" fill="#FFBE9D"/>
<path d="M210.447 192.261C210.447 192.261 206.297 191.777 202.501 188.184C202.501 188.184 203.563 193.232 210.127 193.938L210.447 192.261Z" fill="#EB996E"/>
<path d="M217.903 174.591C217.823 175.081 217.341 175.418 216.827 175.344C216.314 175.27 215.962 174.813 216.043 174.322C216.123 173.831 216.605 173.494 217.118 173.568C217.631 173.642 217.983 174.1 217.903 174.591Z" fill="#263238"/>
<path d="M218.628 173.532C218.49 173.63 217.894 172.973 216.9 172.777C215.911 172.567 215.08 172.933 214.997 172.789C214.955 172.725 215.115 172.531 215.478 172.363C215.837 172.195 216.414 172.078 217.032 172.204C217.65 172.331 218.125 172.663 218.377 172.956C218.636 173.251 218.695 173.49 218.628 173.532Z" fill="#263238"/>
<path d="M208.097 172.982C208.017 173.473 207.535 173.81 207.021 173.735C206.508 173.661 206.156 173.204 206.236 172.713C206.316 172.223 206.798 171.885 207.311 171.959C207.825 172.033 208.177 172.491 208.097 172.982Z" fill="#263238"/>
<path d="M208.831 171.767C208.692 171.864 208.096 171.208 207.103 171.012C206.114 170.802 205.283 171.167 205.199 171.024C205.157 170.959 205.316 170.766 205.68 170.598C206.039 170.431 206.616 170.314 207.234 170.44C207.851 170.567 208.326 170.899 208.579 171.191C208.837 171.486 208.898 171.725 208.831 171.767Z" fill="#263238"/>
<path d="M210.963 179.852C210.969 179.794 211.608 179.811 212.634 179.883C212.893 179.907 213.143 179.905 213.22 179.74C213.316 179.569 213.265 179.274 213.201 178.955C213.085 178.294 212.964 177.601 212.837 176.874C212.345 173.917 212.043 171.507 212.162 171.487C212.281 171.469 212.777 173.85 213.269 176.807C213.384 177.535 213.495 178.229 213.599 178.893C213.638 179.2 213.737 179.56 213.532 179.914C213.426 180.09 213.212 180.191 213.041 180.202C212.868 180.219 212.726 180.193 212.598 180.175C211.581 180.029 210.956 179.909 210.963 179.852Z" fill="#263238"/>
<path d="M207.904 179.954C208.067 179.977 207.854 181.055 208.624 182.005C209.392 182.957 210.565 183.065 210.544 183.217C210.545 183.287 210.246 183.375 209.758 183.291C209.28 183.213 208.615 182.921 208.144 182.34C207.675 181.758 207.559 181.085 207.61 180.635C207.658 180.176 207.832 179.934 207.904 179.954Z" fill="#263238"/>
<path d="M209.865 167.927C209.713 168.177 208.747 167.851 207.555 167.759C206.364 167.642 205.356 167.796 205.249 167.523C205.203 167.393 205.418 167.172 205.85 166.986C206.279 166.801 206.929 166.673 207.644 166.734C208.359 166.798 208.977 167.036 209.366 167.294C209.76 167.552 209.933 167.807 209.865 167.927Z" fill="#263238"/>
<path d="M218.838 170.586C218.618 170.776 217.981 170.406 217.16 170.23C216.346 170.026 215.611 170.078 215.498 169.81C215.45 169.681 215.605 169.477 215.952 169.325C216.294 169.172 216.831 169.098 217.393 169.228C217.955 169.359 218.403 169.661 218.643 169.949C218.888 170.239 218.937 170.491 218.838 170.586Z" fill="#263238"/>
<path d="M197.637 173.062C197.537 172.992 193.46 170.862 192.718 175.308C191.977 179.753 196.593 179.581 196.622 179.455C196.652 179.329 197.637 173.062 197.637 173.062Z" fill="#FFBE9D"/>
<path d="M195.545 177.544C195.528 177.527 195.459 177.586 195.318 177.624C195.181 177.661 194.955 177.665 194.737 177.539C194.296 177.288 194.025 176.477 194.137 175.672C194.194 175.265 194.343 174.894 194.539 174.599C194.729 174.296 194.978 174.104 195.221 174.102C195.465 174.087 195.609 174.256 195.643 174.39C195.682 174.525 195.638 174.609 195.661 174.62C195.672 174.634 195.768 174.562 195.763 174.372C195.759 174.28 195.725 174.167 195.634 174.064C195.542 173.96 195.393 173.889 195.225 173.88C194.878 173.847 194.517 174.11 194.301 174.434C194.066 174.757 193.889 175.172 193.825 175.628C193.704 176.529 194.023 177.444 194.635 177.736C194.934 177.87 195.211 177.82 195.362 177.737C195.52 177.651 195.56 177.555 195.545 177.544Z" fill="#EB996E"/>
<path d="M222.286 169.57C219.288 169.758 216.235 168.4 214.369 166.046C213.063 164.399 212.233 162.241 210.385 161.241C209.141 160.567 207.61 160.56 206.261 160.988C204.913 161.416 203.724 162.244 202.66 163.177C203.253 166.71 201.681 170.208 200.15 173.447C199.981 173.804 199.787 174.188 199.432 174.363C198.829 174.661 198.11 174.19 197.749 173.623C197.173 172.714 197.105 171.579 197.126 170.503C197.175 168.051 197.605 165.587 198.601 163.346C199.596 161.105 201.178 159.095 203.249 157.78C205.836 156.138 209.095 155.669 212.09 156.316C215.086 156.962 217.806 158.679 219.842 160.969C220.787 162.031 221.609 163.251 221.93 164.636" fill="#263238"/>
<path d="M43.1749 273.824C43.1692 273.821 43.2069 273.729 43.2869 273.554C43.3765 273.363 43.4962 273.106 43.6498 272.781C43.9577 272.098 44.3583 271.063 44.7154 269.686C45.4207 266.934 45.6664 262.728 44.6245 257.733C44.1407 255.232 43.3605 252.549 42.4076 249.705C41.4693 246.856 40.3794 243.832 39.4892 240.564C38.6092 237.304 37.9141 233.765 38.0479 230.055C38.1829 226.338 39.2831 222.627 40.494 218.934C41.7016 215.234 42.9509 211.618 43.3253 207.981C43.7484 204.351 42.9714 200.786 41.3176 197.866C39.7157 194.914 37.7004 192.39 36.1919 189.776C34.6597 187.17 33.7016 184.49 33.1109 181.998C31.966 176.973 32.3672 172.739 32.9157 169.949C33.5103 167.144 34.1733 165.693 34.1733 165.693C34.1797 165.696 34.1541 165.791 34.0991 165.976C34.0364 166.178 33.9519 166.448 33.8444 166.792C33.6223 167.509 33.3356 168.58 33.0629 169.978C32.5618 172.762 32.2079 176.967 33.3759 181.937C33.9781 184.401 34.9407 187.046 36.4671 189.616C37.9717 192.2 39.996 194.714 41.63 197.699C43.3189 200.652 44.1311 204.332 43.7004 208.02C43.324 211.718 42.0652 215.359 40.86 219.053C39.6498 222.744 38.5624 226.415 38.4248 230.07C38.2879 233.723 38.965 237.229 39.8316 240.473C40.7071 243.725 41.7842 246.749 42.7109 249.606C43.6517 252.459 44.4223 255.163 44.8914 257.682C45.9058 262.715 45.6165 266.962 44.8607 269.723C44.4786 271.106 44.0524 272.139 43.7202 272.814C43.5525 273.134 43.4207 273.386 43.3221 273.573C43.23 273.742 43.1807 273.827 43.1749 273.824Z" fill="#263238"/>
<path d="M38.2399 192.356C38.2399 192.356 35.1769 182.561 40.6713 176.827C40.8639 176.625 41.2038 176.72 41.2537 176.995C41.5468 178.612 41.9135 183.538 38.2399 192.356Z" fill="#00A0E2"/>
<path d="M40.0754 180.09C40.1273 180.1 40.0396 180.789 39.8694 181.897C39.6684 183.141 39.4316 184.603 39.1705 186.217C38.9145 187.831 38.6822 189.292 38.485 190.537C38.3174 191.643 38.2169 192.329 38.1606 192.324C38.1113 192.32 38.1158 191.623 38.2156 190.503C38.3167 189.384 38.5145 187.845 38.7916 186.155C39.0681 184.465 39.3625 182.943 39.6025 181.847C39.8412 180.75 40.023 180.08 40.0754 180.09Z" fill="#263238"/>
<path d="M41.8379 215.456C41.8379 215.456 43.7112 205.367 51.2491 202.867C51.514 202.779 51.7694 203.022 51.6849 203.288C51.1883 204.855 49.2081 209.381 41.8379 215.456Z" fill="#00A0E2"/>
<path d="M49.1957 205.473C49.2366 205.507 48.8373 206.075 48.1685 206.974C47.4082 207.98 46.516 209.161 45.5311 210.466C44.5493 211.773 43.661 212.956 42.9045 213.964C42.2389 214.863 41.8293 215.422 41.7819 215.392C41.7397 215.366 42.0699 214.752 42.6818 213.809C43.2949 212.867 44.189 211.598 45.2245 210.234C46.2587 208.87 47.2315 207.663 47.956 206.806C48.6799 205.948 49.1547 205.439 49.1957 205.473Z" fill="#263238"/>
<path d="M39.8014 240.768C39.8014 240.768 38.6634 230.569 45.1511 225.988C45.379 225.828 45.6938 225.986 45.6906 226.265C45.6695 227.908 45.0897 232.814 39.8014 240.768Z" fill="#00A0E2"/>
<path d="M43.9425 229.078C43.9917 229.097 43.7741 229.757 43.3953 230.812C42.9601 231.995 42.4493 233.385 41.8849 234.92C41.3255 236.456 40.8193 237.846 40.3879 239.029C40.0122 240.083 39.7825 240.737 39.7281 240.722C39.6801 240.708 39.8183 240.025 40.1293 238.945C40.4423 237.866 40.9293 236.392 41.5245 234.786C42.1185 233.181 42.6977 231.743 43.1425 230.712C43.5866 229.682 43.8932 229.058 43.9425 229.078Z" fill="#263238"/>
<path d="M45.4796 266.228C45.4796 266.228 44.7077 255.995 51.3548 251.649C51.5884 251.497 51.8975 251.666 51.884 251.944C51.8047 253.586 51.0488 258.468 45.4796 266.228Z" fill="#00A0E2"/>
<path d="M50.0373 254.694C50.0859 254.716 49.8446 255.367 49.4286 256.408C48.9512 257.575 48.3912 258.945 47.7723 260.458C47.1586 261.973 46.6024 263.344 46.1288 264.512C45.7154 265.552 45.4632 266.197 45.4094 266.18C45.3621 266.165 45.524 265.488 45.8741 264.419C46.2254 263.351 46.7656 261.897 47.4178 260.313C48.0686 258.729 48.6997 257.313 49.1803 256.299C49.6597 255.285 49.9886 254.672 50.0373 254.694Z" fill="#263238"/>
<path d="M33.8385 183.75C33.8385 183.75 24.7421 179 24.5636 171.06C24.5572 170.781 24.8644 170.608 25.0941 170.767C26.4458 171.701 30.1924 174.922 33.8385 183.75Z" fill="#00A0E2"/>
<path d="M26.452 173.787C26.4962 173.758 26.9218 174.306 27.5854 175.21C28.324 176.231 29.1918 177.431 30.1499 178.756C31.1118 180.078 31.9822 181.274 32.7234 182.293C33.3877 183.193 33.8024 183.749 33.7595 183.785C33.7218 183.818 33.2322 183.322 32.5096 182.461C31.789 181.598 30.8386 180.371 29.8382 178.981C28.8373 177.591 27.9682 176.308 27.3614 175.364C26.7547 174.42 26.4078 173.817 26.452 173.787Z" fill="#263238"/>
<path d="M43.6066 204.785C43.6066 204.785 34.2383 200.595 33.5784 192.681C33.5554 192.403 33.8517 192.212 34.0898 192.356C35.4959 193.207 39.4306 196.194 43.6066 204.785Z" fill="#00A0E2"/>
<path d="M35.6291 195.289C35.6714 195.257 36.1296 195.778 36.8471 196.64C37.6464 197.614 38.5853 198.759 39.6221 200.023C40.6621 201.284 41.6035 202.425 42.4055 203.397C43.1235 204.256 43.5709 204.785 43.5306 204.824C43.4947 204.858 42.9763 204.393 42.2026 203.577C41.4307 202.76 40.408 201.593 39.3251 200.266C38.2416 198.94 37.2963 197.712 36.6333 196.806C35.9696 195.901 35.5869 195.321 35.6291 195.289Z" fill="#263238"/>
<path d="M38.2154 228.247C38.2154 228.247 31.7834 220.251 34.8004 212.905C34.906 212.647 35.2574 212.612 35.4039 212.848C36.2686 214.247 38.4106 218.698 38.2154 228.247Z" fill="#00A0E2"/>
<path d="M35.4388 216.16C35.4913 216.151 35.6615 216.824 35.9079 217.918C36.1755 219.15 36.4897 220.596 36.8372 222.194C37.1892 223.79 37.5073 225.235 37.7787 226.466C38.027 227.557 38.1844 228.232 38.13 228.248C38.0827 228.263 37.8324 227.612 37.5156 226.533C37.2007 225.455 36.8212 223.95 36.4622 222.275C36.1012 220.602 35.8196 219.077 35.6417 217.97C35.4631 216.861 35.387 216.17 35.4388 216.16Z" fill="#263238"/>
<path d="M44.5869 255.857C44.5869 255.857 35.2909 251.511 34.7635 243.587C34.745 243.309 35.0445 243.123 35.2806 243.271C36.6726 244.145 40.5568 247.198 44.5869 255.857Z" fill="#00A0E2"/>
<path d="M36.7709 246.229C36.8138 246.197 37.2631 246.727 37.9658 247.6C38.7485 248.588 39.6682 249.748 40.6832 251.03C41.7021 252.308 42.6244 253.464 43.4096 254.45C44.113 255.319 44.5514 255.856 44.5104 255.895C44.474 255.929 43.9632 255.455 43.2036 254.626C42.4458 253.797 41.4423 252.612 40.3818 251.268C39.3207 249.924 38.3965 248.679 37.7488 247.764C37.1012 246.847 36.728 246.26 36.7709 246.229Z" fill="#263238"/>
<path d="M63.1034 215.511C63.1124 215.511 63.1162 215.588 63.1149 215.737C63.1104 215.915 63.1053 216.131 63.0989 216.393C63.0714 217.009 63.0349 217.842 62.9888 218.881C62.8692 221.068 62.7021 224.119 62.5018 227.767L62.5012 227.776L62.4986 227.788C61.8349 231.502 59.9437 235.618 57.4036 239.614C55.5399 242.557 53.5866 245.234 51.9021 247.723C50.2061 250.205 48.7751 252.503 47.7773 254.54C46.7732 256.574 46.1895 258.322 45.8477 259.544C45.6845 260.157 45.5617 260.635 45.4906 260.962C45.4145 261.288 45.3677 261.458 45.3543 261.456C45.3415 261.454 45.362 261.279 45.4144 260.948C45.4605 260.615 45.5604 260.13 45.7025 259.507C46.0013 258.267 46.5511 256.489 47.5322 254.423C48.5069 252.353 49.9245 250.023 51.6077 247.525C53.2807 245.019 55.2237 242.338 57.0772 239.41C59.6039 235.433 61.4855 231.38 62.1735 227.726L62.1709 227.748C62.4269 224.103 62.6413 221.056 62.7949 218.87C62.8788 217.833 62.946 217.003 62.9959 216.388C63.0221 216.127 63.0439 215.913 63.0618 215.735C63.0816 215.586 63.0951 215.511 63.1034 215.511Z" fill="#263238"/>
<path d="M57.5681 238.85C57.5681 238.85 61.5053 229.374 56.553 223.165C56.3789 222.948 56.0321 223.012 55.9578 223.28C55.5194 224.864 54.7079 229.737 57.5681 238.85Z" fill="#00A0E2"/>
<path d="M56.8508 226.469C56.9033 226.463 57.0243 227.148 57.1632 228.262C57.3027 229.376 57.4582 230.918 57.5804 232.626C57.704 234.334 57.7609 235.885 57.7603 237.009C57.7577 238.133 57.7001 238.828 57.6502 238.827C57.5939 238.827 57.5561 238.134 57.4889 237.017C57.4051 235.76 57.3065 234.284 57.1971 232.653C57.0832 231.022 56.9801 229.545 56.8924 228.288C56.8227 227.168 56.7977 226.475 56.8508 226.469Z" fill="#263238"/>
<g opacity="0.3">
<path d="M57.5681 238.85C57.5681 238.85 61.5053 229.374 56.553 223.165C56.3789 222.948 56.0321 223.012 55.9578 223.28C55.5194 224.864 54.7079 229.737 57.5681 238.85Z" fill="black"/>
</g>
<path d="M45.3734 261.687C45.3734 261.687 48.5293 251.922 43.0893 246.136C42.8979 245.932 42.5581 246.024 42.5056 246.298C42.1971 247.912 41.7837 252.836 45.3734 261.687Z" fill="#00A0E2"/>
<path d="M43.6553 249.404C43.7071 249.395 43.8831 250.067 44.1116 251.166C44.3407 252.265 44.621 253.789 44.8815 255.481C45.1433 257.174 45.3257 258.715 45.4166 259.835C45.5055 260.956 45.5036 261.653 45.4543 261.656C45.398 261.66 45.3046 260.973 45.1471 259.865C44.9615 258.619 44.7433 257.156 44.5026 255.539C44.2569 253.922 44.0342 252.459 43.8447 251.212C43.6841 250.104 43.6034 249.414 43.6553 249.404Z" fill="#263238"/>
<g opacity="0.3">
<path d="M45.3734 261.687C45.3734 261.687 48.5293 251.922 43.0893 246.136C42.8979 245.932 42.5581 246.024 42.5056 246.298C42.1971 247.912 41.7837 252.836 45.3734 261.687Z" fill="black"/>
</g>
<path d="M62.582 227.268C62.582 227.268 70.9891 221.383 70.1404 213.486C70.1103 213.209 69.7833 213.077 69.5766 213.263C68.3567 214.366 65.0576 218.043 62.582 227.268Z" fill="#00A0E2"/>
<g opacity="0.3">
<path d="M62.582 227.268C62.582 227.268 70.9891 221.383 70.1404 213.486C70.1103 213.209 69.7833 213.077 69.5766 213.263C68.3567 214.366 65.0576 218.043 62.582 227.268Z" fill="black"/>
</g>
<path d="M68.6188 216.434C68.6661 216.458 68.4005 217.1 67.9205 218.115C67.4405 219.129 66.7449 220.514 65.9314 222.021C65.1193 223.529 64.3353 224.869 63.7317 225.817C63.1269 226.764 62.7052 227.319 62.6636 227.292C62.6162 227.261 62.9554 226.657 63.4981 225.678C64.1017 224.572 64.8101 223.274 65.5935 221.839C66.3724 220.402 67.0777 219.1 67.6786 217.991C68.2201 217.01 68.5714 216.411 68.6188 216.434Z" fill="#263238"/>
<path d="M48.7637 252.006C48.7637 252.006 58.9032 250.425 61.6194 242.962C61.7147 242.701 61.4792 242.438 61.211 242.514C59.6309 242.966 55.0491 244.814 48.7637 252.006Z" fill="#00A0E2"/>
<g opacity="0.3">
<path d="M48.7637 252.006C48.7637 252.006 58.9032 250.425 61.6194 242.962C61.7147 242.701 61.4792 242.438 61.211 242.514C59.6309 242.966 55.0491 244.814 48.7637 252.006Z" fill="black"/>
</g>
<path d="M58.9558 244.94C58.9879 244.982 58.4663 245.441 57.5888 246.141C56.7114 246.84 55.4768 247.777 54.0829 248.772C52.6896 249.768 51.3955 250.625 50.4362 251.211C49.4755 251.795 48.8528 252.108 48.8272 252.065C48.7984 252.016 49.3693 251.623 50.2877 250.984C51.3168 250.257 52.5245 249.403 53.8595 248.46C55.192 247.512 56.3984 246.654 57.4256 245.924C58.344 245.281 58.9232 244.897 58.9558 244.94Z" fill="#263238"/>
<path d="M39.0912 270.666L36.1338 290.573H54.5658L52.176 270.666H39.0912Z" fill="#455A64"/>
<path d="M52.9131 276.835C52.9131 276.941 49.5851 277.027 45.4808 277.027C41.3752 277.027 38.0479 276.941 38.0479 276.835C38.0479 276.728 41.3752 276.643 45.4808 276.643C49.5851 276.643 52.9131 276.729 52.9131 276.835Z" fill="#263238"/>
<path d="M53.2787 278.419C53.2787 278.525 49.8413 278.611 45.6026 278.611C41.3619 278.611 37.9258 278.525 37.9258 278.419C37.9258 278.312 41.3619 278.227 45.6026 278.227C49.8413 278.227 53.2787 278.313 53.2787 278.419Z" fill="#263238"/>
</svg>
